<svg xmlns="http://www.w3.org/2000/svg" xmlns:xlink="http://www.w3.org/1999/xlink" viewBox="0 0 944.84 210.16"><radialGradient id="a" cx="104.8" cy="106.46" gradientUnits="userSpaceOnUse" r="104.79"><stop offset="0" stop-color="#faa61a"></stop><stop offset=".41" stop-color="#f7901e"></stop><stop offset="1" stop-color="#f37021"></stop></radialGradient><linearGradient id="b" gradientUnits="userSpaceOnUse" x1="104.58" x2="104.58" y1="167.76" y2="167.76"><stop offset="0" stop-color="#fff"></stop><stop offset="1" stop-color="#00b26b"></stop></linearGradient><linearGradient id="c" x1="104.73" x2="167.34" xlink:href="#b" y1="131.15" y2="131.15"></linearGradient><linearGradient id="d" x1="104.89" x2="162.73" xlink:href="#b" y1="127.73" y2="127.73"></linearGradient><linearGradient id="e" x1="104.73" x2="155.1" xlink:href="#b" y1="122.77" y2="122.77"></linearGradient><linearGradient id="f" x1="104.73" x2="142.98" xlink:href="#b" y1="117.73" y2="117.73"></linearGradient><linearGradient id="g" gradientTransform="matrix(-1 0 0 1 327.88 0)" x1="223" x2="285.57" xlink:href="#b" y1="131.19" y2="131.19"></linearGradient><linearGradient id="h" gradientTransform="matrix(-1 0 0 1 327.88 0)" x1="223.16" x2="281" xlink:href="#b" y1="127.73" y2="127.73"></linearGradient><linearGradient id="i" gradientTransform="matrix(-1 0 0 1 327.88 0)" x1="223" x2="273.37" xlink:href="#b" y1="122.77" y2="122.77"></linearGradient><linearGradient id="j" gradientTransform="matrix(-1 0 0 1 327.88 0)" x1="223" x2="261.25" xlink:href="#b" y1="117.73" y2="117.73"></linearGradient><radialGradient id="k" cx="105.87" cy="103.39" gradientUnits="userSpaceOnUse" r="28.65"><stop offset="0" stop-color="#060000"></stop><stop offset="1" stop-color="#450607"></stop></radialGradient><g transform="translate(0 -1.69)"><path d="m209.61 106.49a105.73 105.73 0 0 1 -1.17 15.3 104.49 104.49 0 1 1 1.17-15.3z" fill="url(#a)"></path><path d="m169.58 106.48a65.36 65.36 0 0 1 -.72 9.45 64.59 64.59 0 1 1 .72-9.45z" fill="#fff"></path><path d="m167.52 106.48a63.28 63.28 0 0 1 -.7 9.15 62.53 62.53 0 1 1 .7-9.15z" fill="#59aa47"></path><path d="m165.85 93.32a52.12 52.12 0 0 1 1.49 12.57 64.76 64.76 0 0 1 -3.57 21.28 62.59 62.59 0 0 1 -7.77 15.16c-.88 1.27-1.94 2.57-3 3.82a63.38 63.38 0 0 1 -31.65 20.56 55.07 55.07 0 0 1 -16.59 2.23s7.91-19.47 37-31.65c26.57-11.11 24.09-43.97 24.09-43.97z" style="stroke:#fff;stroke-linecap:round;stroke-linejoin:round;stroke-width:.46;opacity:.6;fill:url(#c)"></path><path d="m104.89 168.44s9.24-32.91 31.69-44.21c26.17-13.17 24-33.56 24.55-37.22 0 0 7 20.62-8.13 48.67s-48.1 32.76-48.1 32.76" style="stroke:#fff;stroke-linecap:round;stroke-linejoin:round;stroke-width:.46;opacity:.6;fill:url(#d)"></path><path d="m104.73 168.94s65.13-21 47.27-92.35c0 0 3.05 25.81-20.16 44.89s-27.11 35.21-27.11 47.46z" style="stroke:#fff;stroke-linecap:round;stroke-linejoin:round;stroke-width:.46;opacity:.6;fill:url(#e)"></path><path d="m104.73 168.94s55.05-26.07 33.06-102.43c0 0 6.72 22.45-11 48.71s-22.06 35.21-22.06 53.72z" style="stroke:#fff;stroke-linecap:round;stroke-linejoin:round;stroke-width:.46;opacity:.6;fill:url(#f)"></path><path d="m43.82 93.43a62 62 0 0 0 -1.51 14 59.39 59.39 0 0 0 2.69 17.47 60.86 60.86 0 0 0 2.42 6.51c.42 1 .89 2 1.39 3a59.55 59.55 0 0 0 7.48 11.53c.92 1.08 1.84 2.18 2.77 3.19s1.74 1.78 2.61 2.61a63.23 63.23 0 0 0 17 11.57 60.42 60.42 0 0 0 19 5.31 49.25 49.25 0 0 0 7.13.36s-7.91-19.47-37-31.65c-26.53-11.15-23.98-43.9-23.98-43.9z" style="stroke:#fff;stroke-linecap:round;stroke-linejoin:round;stroke-width:.46;opacity:.6;fill:url(#g)"></path><path d="m104.72 168.44s-9.24-32.9-31.72-44.2c-26.13-13.18-24-33.56-24.51-37.24 0 0-7 20.62 8.13 48.67s48.1 32.76 48.1 32.76" style="stroke:#fff;stroke-linecap:round;stroke-linejoin:round;stroke-width:.46;opacity:.6;fill:url(#h)"></path><path d="m104.88 168.94s-65.13-21-47.27-92.35c0 0-3.05 25.81 20.16 44.89s27.11 35.21 27.11 47.46z" style="stroke:#fff;stroke-linecap:round;stroke-linejoin:round;stroke-width:.46;opacity:.6;fill:url(#i)"></path><path d="m104.88 168.94s-55.05-26.07-33.07-102.43c0 0-6.72 22.45 11 48.71s22.07 35.21 22.07 53.72z" style="stroke:#fff;stroke-linecap:round;stroke-linejoin:round;stroke-width:.46;opacity:.6;fill:url(#j)"></path><path d="m108.54 137.33-2.37.12-3.39-.12-8.78.87a.26.26 0 0 1 -.26-.22l-.9-5.98c-2.82-.82-3.26-2.8-3.28-2.89a84.77 84.77 0 0 1 .35-9.5c.44-4.16 1.54-20.47 1.62-21.71l-6.34-12.04a.26.26 0 0 1 0-.24 72.53 72.53 0 0 1 4.09-6.77c1.27-1.77 3.29-2.27 5.42-2.8a21.8 21.8 0 0 0 3.85-1.22c3.4-1.54 3.45-5.95 3.45-6a.26.26 0 0 1 .26-.26h6.66a.26.26 0 0 1 .26.25s.21 4.46 3.63 6a21.63 21.63 0 0 0 4 1.23c2.26.53 4.4 1 5.66 2.79a55.53 55.53 0 0 1 4.06 7.35.26.26 0 0 1 0 .24l-6.71 11.57c.09 1.29 1.18 17.55 1.62 21.71a86.76 86.76 0 0 1 .35 9.45c0 .13-.46 2.11-3.28 2.93l-.9 5.94a.26.26 0 0 1 -.26.22z" fill="url(#k)"></path><path d="m108.92 68.84s.18 4.6 3.78 6.23 7.68 1.26 9.6 3.93a54.78 54.78 0 0 1 4 7.31l-6.77 11.59s1.16 17.44 1.63 21.8a85.83 85.83 0 0 1 .35 9.42s-.41 2-3.26 2.73l-.93 6.1-8.78-.87-2.41.12-3.37-.12-8.78.87-.93-6.1c-2.85-.76-3.26-2.73-3.26-2.73a85.74 85.74 0 0 1 .35-9.42c.46-4.36 1.63-21.8 1.63-21.8l-6.35-12.16a71.73 71.73 0 0 1 4.07-6.74c1.92-2.67 5.56-2.3 9.17-3.93s3.6-6.23 3.6-6.23zm0-.52h-6.66a.52.52 0 0 0 -.52.52s0 4.29-3.29 5.75a21.56 21.56 0 0 1 -3.8 1.2c-2.18.54-4.25 1.05-5.57 2.9a71.25 71.25 0 0 0 -4.08 6.81.52.52 0 0 0 0 .5l6.31 12c-.11 1.7-1.18 17.54-1.62 21.63a87 87 0 0 0 -.35 9.48.52.52 0 0 0 0 .09 4.49 4.49 0 0 0 3.3 3l.85 5.8a.52.52 0 0 0 .52.44h.05l8.74-.87 3.34.11 2.42-.11 8.74.87h.05a.52.52 0 0 0 .52-.44l.88-5.77a4.49 4.49 0 0 0 3.3-3 .52.52 0 0 0 0-.09 87.1 87.1 0 0 0 -.35-9.48c-.43-4.08-1.5-19.85-1.62-21.62l6.69-11.45a.52.52 0 0 0 0-.48 54.5 54.5 0 0 0 -4.08-7.39c-1.32-1.84-3.5-2.35-5.81-2.89a21.38 21.38 0 0 1 -4-1.22c-3.27-1.48-3.47-5.73-3.47-5.77a.52.52 0 0 0 -.52-.5z" fill="#fff"></path><path d="m127.29 163.8a14 14 0 0 1 -3-.52l-.79-.19c-.45-.09-2.23-.09-3.85-.09h-1.79c-1.29 0-2.56 0-3.56 0a49.88 49.88 0 0 1 -8.42-1.53 10.64 10.64 0 0 1 -.84 1.1.77.77 0 0 1 -.6.21 8.45 8.45 0 0 1 -3.41-1.22 74.53 74.53 0 0 0 -8-2.22.26.26 0 0 1 -.14-.09.54.54 0 0 0 -.37-.17h-.27a4.81 4.81 0 0 1 -.54 0 3 3 0 0 1 -1-.16 11.92 11.92 0 0 0 -1.93-.37l-1.22-.19a10.39 10.39 0 0 1 -2.15-.77 6.23 6.23 0 0 0 -1.65-.58h-.22-.29a.44.44 0 0 1 -.34-.15 1.53 1.53 0 0 0 -.2-.16l-.2-.15a.35.35 0 0 0 -.23-.13 1.6 1.6 0 0 0 -.32.05 1.49 1.49 0 0 1 -.33 0 1.09 1.09 0 0 1 -.92-.73l-.08-.13a21.81 21.81 0 0 1 -2.07-4.36c-.92-2.37-.44-3 .6-4.33.21-.27.44-.57.7-.93 1.16-1.63 5-2 7.62-2.23a11.9 11.9 0 0 0 1.75-.22 1.43 1.43 0 0 0 1-.94c.13-.24.29-.54.53-.92a5.47 5.47 0 0 0 .75-1.51c.13-.36.31-.86.66-1.72s.85-1.85 1.2-2.53a5.79 5.79 0 0 0 .83-2.08.93.93 0 0 1 .74-1 19.84 19.84 0 0 1 -.3-3.15 65.06 65.06 0 0 0 -1.65-11 61.36 61.36 0 0 1 -1.38-8.31c-.06-.55-.11-1-.15-1.23a13.22 13.22 0 0 0 -1.11-2.92c-.18-.38-.33-.7-.41-.91a3.22 3.22 0 0 1 -.24-1c-.6-.71-4.82-5.67-5.28-6.51s-3.29-10.94-3.42-11.81a1.3 1.3 0 0 1 .88-1.37 12.1 12.1 0 0 1 3.9.84 101 101 0 0 1 11 6.14 5.86 5.86 0 0 0 2.9 1.3.27.27 0 0 1 .14 0l.52.35a.26.26 0 0 1 .11.18l1.18 7.85a.26.26 0 0 1 -.05.2.26.26 0 0 1 -.18.1h-.17a1.91 1.91 0 0 1 -1.4-.53l-.31-.31a3.5 3.5 0 0 1 -1-1.43 3.12 3.12 0 0 0 -1.13-1.32l-5.64-3.18.8 1.33a2.36 2.36 0 0 0 .87.74l.17.11a4.66 4.66 0 0 0 1.21.57 1.22 1.22 0 0 1 .76.58.43.43 0 0 0 .22.21 1.19 1.19 0 0 1 .6.67 1 1 0 0 0 .25.37l3.44 2.61a3.47 3.47 0 0 1 .35.3.44.44 0 0 0 .4.19h.25a.54.54 0 0 0 .55-.46.26.26 0 0 1 .26-.24c8.16.45 8.2.8 8.22 1.06s.05.21.35.32l.14-.07a2.53 2.53 0 0 0 .61-.29.57.57 0 0 1 .31-.13.27.27 0 0 1 .18.07 1.11 1.11 0 0 0 .18-.19l.08-.1a1.63 1.63 0 0 1 .69-.53 8.58 8.58 0 0 0 1.16-1c.38-.37.74-.73 1-.94a4 4 0 0 1 .86-.55l.57-.3a2.75 2.75 0 0 0 .9-.68l.26-.28c.22-.22 1-1.06 1.66-1.8l-1.48.86a26.32 26.32 0 0 0 -4.43 3.31 12.27 12.27 0 0 1 -3 2.15.26.26 0 0 1 -.12 0 .26.26 0 0 1 -.26-.3l.17-1.22 2-6.49a.26.26 0 0 1 .21-.18 5.33 5.33 0 0 0 1.61-.58l.68-.38a33.2 33.2 0 0 0 6.08-4.08 17.23 17.23 0 0 1 7-3.59l.85-.26a2.76 2.76 0 0 1 .83-.15 1.16 1.16 0 0 1 1 .5 2.09 2.09 0 0 1 .12 1.7c-.13.33-1.51 6-1.6 7.07s-2.16 4.37-2.39 4.74c-1.1 1.43-2.87 3.75-3 4a9.93 9.93 0 0 1 -.93 1.17 13.69 13.69 0 0 0 -1.2 1.51c-.09.22-.34.67-.64 1.19s-.69 1.22-.8 1.51a6.11 6.11 0 0 0 -.19 1.44c0 .4-.05.8-.1 1.13-.13.77-1.86 7.52-2.1 8.2s-2.49 12.06-2.51 12.64v.18a1.47 1.47 0 0 0 0 .2.52.52 0 0 1 .44.45 2 2 0 0 0 .1.28c.07.15.29.59.56 1.1.55 1.06.94 1.82 1 2.06s.11.36.21.69c.25.85.67 2.28.92 2.87a13.7 13.7 0 0 0 1.55 2.22c.22.28.4.5.47.61l.11.16h.16a.5.5 0 0 1 .29.27.23.23 0 0 0 .1.11.9.9 0 0 1 .39-.25 1.13 1.13 0 0 1 .32-.05 1.33 1.33 0 0 1 .51.14l.13.05c.41.16.74.3 4.89.64a11.06 11.06 0 0 1 7.37 3.16l.41.35c1.8 1.52-.3 5.38-1.21 7-.14.25-.24.45-.29.56a3.28 3.28 0 0 1 -1.82 1.69 2.17 2.17 0 0 1 -1.09.32h-.45c-.26 0-.58 0-1.06 0a19.17 19.17 0 0 0 -3.59.59l.24.08a.68.68 0 0 1 .3.23.38.38 0 0 0 .39.12 4.57 4.57 0 0 0 .66-.06h.27a2.85 2.85 0 0 1 2.14 1.38 1.37 1.37 0 0 1 .32 1 .57.57 0 0 0 0 .48c0 .1.05.22.09.37a1.21 1.21 0 0 1 -.66 1.42.64.64 0 0 0 -.23.21 3.46 3.46 0 0 1 -.78.72 1.66 1.66 0 0 1 -.72.17z" fill="#450607"></path><path d="m82 84.84a12.6 12.6 0 0 1 3.75.83 102 102 0 0 1 11 6.1 6 6 0 0 0 3.05 1.35l.52.35 1.18 7.85h-.14a1.68 1.68 0 0 1 -1.21-.44 4.19 4.19 0 0 1 -1.22-1.66 3.38 3.38 0 0 0 -1.39-1.48l-6.54-3.66s1.09 1.83 1.31 2.18a2.59 2.59 0 0 0 1 .83 5.54 5.54 0 0 0 1.44.7c.7.22.52.61 1 .78s.44.74.78 1l3.44 2.62a1.31 1.31 0 0 0 .9.54h.28a.81.81 0 0 0 .78-.7s7.93.44 8 .83a.65.65 0 0 0 .61.57l.16.06s-.08-.08.1-.14a2.69 2.69 0 0 0 .65-.31l.18-.1s-.11.1 0 .1a.53.53 0 0 0 .52-.31 1.53 1.53 0 0 1 .7-.57c.44-.22 1.61-1.53 2.22-2a7 7 0 0 1 1.4-.83 3.73 3.73 0 0 0 1.22-1c.44-.44 2.83-3.1 2.83-3.1s-2.27 1.35-3 1.74a26.38 26.38 0 0 0 -4.49 3.36 12.14 12.14 0 0 1 -2.88 2.09l.17-1.22 2-6.45a5.57 5.57 0 0 0 1.7-.61 37.62 37.62 0 0 0 6.8-4.49c2.88-2.53 5.76-3.14 7.8-3.79a2.49 2.49 0 0 1 .75-.13c1.24 0 1.06 1.46.91 1.83s-1.53 6.1-1.61 7.15-2.35 4.62-2.35 4.62-2.83 3.66-3 4-2 2.27-2.14 2.7-1.22 2.14-1.44 2.7a20.49 20.49 0 0 0 -.31 2.62c-.13.78-1.87 7.54-2.09 8.15s-2.53 12.25-2.53 12.73 0 .52.22.61.17.22.35.61 1.44 2.75 1.57 3.14.78 2.75 1.13 3.57a22.64 22.64 0 0 0 2 2.88c.26.39.17.22.39.31a2.62 2.62 0 0 1 .35.35.26.26 0 0 0 .14.05c.15 0 .23-.2.47-.27a.89.89 0 0 1 .24 0 1.62 1.62 0 0 1 .54.17c.44.17.7.31 5 .65s5.71 1.83 7.63 3.44-1.22 6.5-1.57 7.28a3 3 0 0 1 -1.7 1.57 1.9 1.9 0 0 1 -1 .29c-.32 0-.72-.07-1.51-.07a25 25 0 0 0 -4.58.83s.78.22 1.13.35a1 1 0 0 0 .78.37 4.8 4.8 0 0 0 .7-.07h.23a2.64 2.64 0 0 1 2.21 2 1.4 1.4 0 0 0 .09 1 1 1 0 0 1 -.52 1.13c-.35.17-.26.39-1 1a1.45 1.45 0 0 1 -.82.18 21.68 21.68 0 0 1 -3.71-.71 38.16 38.16 0 0 0 -3.89-.1h-1.82c-1.28 0-2.54 0-3.54 0a52.49 52.49 0 0 1 -8.54-1.57 11.49 11.49 0 0 1 -.92 1.22.55.55 0 0 1 -.41.12 8.32 8.32 0 0 1 -3.25-1.17c-.57-.44-8.07-2.27-8.07-2.27a.8.8 0 0 0 -.57-.26c-.2 0-.47.06-.81.06a2.76 2.76 0 0 1 -.89-.14 27 27 0 0 0 -3.18-.57c-1.22-.21-3.09-1.36-3.85-1.36h-.05l-.44.05a.82.82 0 0 1 -.39-.27 1 1 0 0 0 -.58-.32 1.77 1.77 0 0 0 -.38.06 1.22 1.22 0 0 1 -.27 0 1 1 0 0 1 -.78-.73 22 22 0 0 1 -2-4.32c-1-2.7-.22-2.92 1.26-5s8.28-2 9.24-2.35.83-.74 1.61-2 .48-.92 1.44-3.27 2-3.75 2-4.71a.65.65 0 0 1 .65-.8h.14a22.25 22.25 0 0 1 -.35-3.4 65.91 65.91 0 0 0 -1.66-11.12 77 77 0 0 1 -1.53-9.5 22.53 22.53 0 0 0 -1.53-3.88 2.48 2.48 0 0 1 -.22-1s-4.84-5.67-5.32-6.54-3.31-10.94-3.4-11.77a1 1 0 0 1 .7-1.09m0-.52h-.17a1.56 1.56 0 0 0 -1.03 1.63c.1.92 3 11.06 3.46 12s4.39 5.46 5.26 6.48a3.72 3.72 0 0 0 .25 1c.08.22.23.54.41.93a13.38 13.38 0 0 1 1.08 2.84c0 .24.09.67.15 1.21a61.44 61.44 0 0 0 1.39 8.36 66.33 66.33 0 0 1 1.64 11 18.82 18.82 0 0 0 .27 3 1.07 1.07 0 0 0 -.28.17 1.31 1.31 0 0 0 -.4 1.01 5.77 5.77 0 0 1 -.8 2c-.36.68-.8 1.54-1.21 2.55-.35.86-.53 1.36-.66 1.73a5.23 5.23 0 0 1 -.73 1.45c-.25.39-.41.7-.54.94a1.19 1.19 0 0 1 -.81.81 13.1 13.1 0 0 1 -1.68.21c-2.62.24-6.59.61-7.81 2.34-.25.36-.49.66-.69.93-1.11 1.44-1.56 2.17-.63 4.58a23 23 0 0 0 2.1 4.41l.04.05a1.33 1.33 0 0 0 1.14.85 1.73 1.73 0 0 0 .39 0h.26a.19.19 0 0 0 .08.07l.2.08a1.27 1.27 0 0 1 .17.14.7.7 0 0 0 .52.22h.33.18a6.54 6.54 0 0 1 1.56.56 10.56 10.56 0 0 0 2.21.79l1.22.19a11.78 11.78 0 0 1 1.88.36 3.28 3.28 0 0 0 1.05.17 5.17 5.17 0 0 0 .57 0h.24a.28.28 0 0 1 .17.08.58.58 0 0 0 .27.16 80.86 80.86 0 0 1 7.88 2.18 8.67 8.67 0 0 0 3.56 1.26 1 1 0 0 0 .8-.29 10.21 10.21 0 0 0 .76-1 49 49 0 0 0 8.3 1.49h3.56 1.82c1.16 0 3.32 0 3.79.09l.78.18a14.16 14.16 0 0 0 3 .53 1.9 1.9 0 0 0 1.13-.28 3.77 3.77 0 0 0 .83-.77.39.39 0 0 1 .15-.14 1.47 1.47 0 0 0 .8-1.71c0-.15-.06-.27-.09-.37a.38.38 0 0 1 0-.31 1.43 1.43 0 0 0 -.34-1.26 3.11 3.11 0 0 0 -2.36-1.49h-.31a4.38 4.38 0 0 1 -.62.06.63.63 0 0 1 -.19 0 15.8 15.8 0 0 1 2.89-.43h1 .47a2.4 2.4 0 0 0 1.22-.35 3.56 3.56 0 0 0 1.94-1.82c0-.11.15-.29.28-.54.93-1.71 3.11-5.7 1.14-7.35l-.41-.35a11.28 11.28 0 0 0 -7.52-3.22c-4.12-.34-4.43-.46-4.79-.61l-.15-.06a1.55 1.55 0 0 0 -.61-.16 1.38 1.38 0 0 0 -.39.06 1.07 1.07 0 0 0 -.28.13.8.8 0 0 0 -.34-.24h-.1l-.05-.08c-.08-.12-.26-.35-.49-.63a13.87 13.87 0 0 1 -1.52-2.16c-.24-.57-.66-2-.91-2.83-.1-.34-.18-.6-.21-.71-.09-.26-.47-1-1-2.11-.25-.49-.49-.94-.55-1.08a1.66 1.66 0 0 1 -.09-.25.83.83 0 0 0 -.44-.59v-.17c0-.65 2.29-11.93 2.5-12.56s2-7.47 2.12-8.24c.06-.34.08-.75.11-1.15a6.17 6.17 0 0 1 .17-1.36c.1-.27.48-.94.78-1.47a13.86 13.86 0 0 0 .65-1.22 16.2 16.2 0 0 1 1.15-1.44 9.12 9.12 0 0 0 1-1.22c.14-.25 1.63-2.21 3-3.93.42-.66 2.37-3.78 2.46-4.9.08-1 1.39-6.52 1.58-7a2.34 2.34 0 0 0 -.15-1.94 1.42 1.42 0 0 0 -1.25-.61 3 3 0 0 0 -.91.16l-.84.26a17.68 17.68 0 0 0 -7.15 3.64 32.91 32.91 0 0 1 -6 4l-.7.39a5.06 5.06 0 0 1 -1.51.54.52.52 0 0 0 -.41.36l-2 6.45a.52.52 0 0 0 0 .08l-.16 1.1a52 52 0 0 0 -7.68-.72.52.52 0 0 0 0-.26l-1.18-7.85a.52.52 0 0 0 -.23-.36l-.52-.35a.52.52 0 0 0 -.27-.09 5.66 5.66 0 0 1 -2.92-1.25 101.44 101.44 0 0 0 -11.1-6.17 13 13 0 0 0 -3.9-.86zm18.82 17.89h-.1l-.12-.11a3.67 3.67 0 0 0 -.37-.32l-2-1.51-1.46-1.11a.94.94 0 0 1 -.17-.28 1.42 1.42 0 0 0 -.73-.79.2.2 0 0 1 -.1-.11 1.47 1.47 0 0 0 -.9-.68 4.46 4.46 0 0 1 -1.15-.54l-.17-.1a2.12 2.12 0 0 1 -.75-.71l-.29-.48 4.78 2.69a2.87 2.87 0 0 1 1.16 1.21 3.76 3.76 0 0 0 1 1.52l.3.3a2.17 2.17 0 0 0 1.6.61.52.52 0 0 0 0 .13.31.31 0 0 1 -.32.22h-.22zm9.63.64a12.42 12.42 0 0 0 3-2.18 25.93 25.93 0 0 1 4.36-3.26l-.5.53-.27.28a2.53 2.53 0 0 1 -.84.63l-.56.29a4.31 4.31 0 0 0 -.91.58c-.28.22-.65.58-1 1a9.68 9.68 0 0 1 -1.1 1 1.86 1.86 0 0 0 -.78.6l-.08.1h-.13a.8.8 0 0 0 -.44.16 2.35 2.35 0 0 1 -.56.27h-.08z" fill="#fff"></path><path d="m92.35 158.84a1.79 1.79 0 0 0 -1 .78 1.09 1.09 0 0 0 -.23.87 3.24 3.24 0 0 1 -.49.26.6.6 0 0 0 -.32.26.8.8 0 0 0 -.35.58.86.86 0 0 1 -.17.44c-.09.12.12-.17-.09.12a.65.65 0 0 0 0 .73.75.75 0 0 0 .52.49 8.23 8.23 0 0 0 2.44-.64c.41-.23 2.73-1.16 3.43-1.48l2-1-4.85-1.57z" fill="#450607" stroke="#fff" stroke-linecap="round" stroke-linejoin="round" stroke-width=".52"></path><path d="m105.49 72.79a3.24 3.24 0 0 1 -.58-.05 3.72 3.72 0 0 1 -1.19-.46 6.22 6.22 0 0 1 -2.43-3 15.74 15.74 0 0 1 -1.29-3.79l-.09-.59c0-.1 0-.21 0-.33a1.72 1.72 0 0 0 -.15-.57.92.92 0 0 1 -.18-.14 1 1 0 0 1 -.23-.5v-.14a.59.59 0 0 0 0-.21 1.5 1.5 0 0 0 -.19-.29 1.51 1.51 0 0 1 -.31-.59 1.9 1.9 0 0 1 .05-1.13 1 1 0 0 1 .24-.27l.11-.11a1.61 1.61 0 0 0 .11-.92c0-.12 0-.23 0-.33a3.19 3.19 0 0 0 -.05-.49v-.2a2.57 2.57 0 0 1 0-.72 2.62 2.62 0 0 1 .21-.66l.06-.13a.8.8 0 0 0 .1-.39v-.2c0-.15 0-.31 0-.46a3.45 3.45 0 0 1 .36-1.32 1.42 1.42 0 0 1 .46-.55c.23-.17.44-.31.62-.47a3.33 3.33 0 0 1 .5-.37.82.82 0 0 0 .23-.25l.15-.2a1.2 1.2 0 0 1 .59-.37l.23-.1.11-.09a2.39 2.39 0 0 0 .29-.39l.08-.11a.64.64 0 0 0 .08-.12 1.65 1.65 0 0 1 .11-.33 1.79 1.79 0 0 1 .88-.88 2.82 2.82 0 0 1 1.08-.26h.11a2.85 2.85 0 0 1 .94.26 4.23 4.23 0 0 0 .46.17 1.67 1.67 0 0 1 1.07.94 1.52 1.52 0 0 0 .7.6 4 4 0 0 0 .79.31 3 3 0 0 1 1.34.68c.17.17.32.37.47.55l.22.27a2.93 2.93 0 0 1 .37.49 1.86 1.86 0 0 1 .18.81 2 2 0 0 0 .06.47c0 .08.06.17.09.25a2.23 2.23 0 0 1 .17.56 5.94 5.94 0 0 1 0 .77v.7a6 6 0 0 1 -.11 1.87c0 .1-.05.21-.08.31s-.08.36-.14.53h.19a.37.37 0 0 1 .29.2c0 .08 0 .16.07.24a1.56 1.56 0 0 1 .11.77l-.14 1a6 6 0 0 1 -.83 2l-.09.16a10.86 10.86 0 0 0 -.65 1.29 2.55 2.55 0 0 1 -.26.47 2.33 2.33 0 0 0 -.21.35c-.07.15-.12.31-.18.47s-.14.4-.23.59c-.24.53-.53 1.15-.87 1.73a4.76 4.76 0 0 1 -3.86 2.71z" fill="#450607"></path><path d="m105.45 50.54h.1a6.18 6.18 0 0 1 1.35.42 1.4 1.4 0 0 1 .9.8 1.74 1.74 0 0 0 .81.72c.63.36 1.54.4 2.07.94.25.26.46.55.68.81a2.89 2.89 0 0 1 .34.45 6.41 6.41 0 0 1 .22 1.23 4.62 4.62 0 0 1 .25.76 5.54 5.54 0 0 1 0 .74 9.52 9.52 0 0 1 -.08 2.5c-.08.28-.12.56-.22.83 0 .12-.13.33 0 .39h.13.34a2.15 2.15 0 0 1 .18.91c0 .32-.09.63-.14 1a6.39 6.39 0 0 1 -.89 2.1 11.12 11.12 0 0 0 -.67 1.32c-.11.28-.34.52-.46.81s-.25.71-.41 1.06c-.27.58-.54 1.16-.86 1.71a4.55 4.55 0 0 1 -3.63 2.57 2.94 2.94 0 0 1 -.54 0 3.43 3.43 0 0 1 -1.11-.42 6.06 6.06 0 0 1 -2.32-2.91 15.76 15.76 0 0 1 -1.27-3.69c0-.2-.06-.39-.09-.58a3.32 3.32 0 0 0 -.17-1 1 1 0 0 0 -.22-.19.7.7 0 0 1 -.16-.36 1.37 1.37 0 0 0 -.08-.42 4.66 4.66 0 0 1 -.5-1.04 1.66 1.66 0 0 1 .09-.92 3.42 3.42 0 0 1 .33-.35 2.5 2.5 0 0 0 .15-1.41 5.56 5.56 0 0 0 -.08-.72 2.6 2.6 0 0 1 0-.71 2.46 2.46 0 0 1 .18-.54 1.33 1.33 0 0 0 .18-.62c0-.21 0-.43 0-.64a3.21 3.21 0 0 1 .33-1.21 1.16 1.16 0 0 1 .38-.46c.22-.15.44-.31.64-.48a3.06 3.06 0 0 1 .46-.35 2 2 0 0 0 .45-.51 1 1 0 0 1 .49-.3l.22-.09a.32.32 0 0 0 .21-.16 2.66 2.66 0 0 0 .33-.43 1.93 1.93 0 0 0 .18-.27c0-.09 0-.21.1-.32a1.54 1.54 0 0 1 .75-.75 2.56 2.56 0 0 1 1-.24m0-.52a3.09 3.09 0 0 0 -1.18.28 2 2 0 0 0 -1 1 1.26 1.26 0 0 0 -.1.3v.06.05l-.1.13a2.21 2.21 0 0 1 -.26.36l-.15.06h-.06a1.45 1.45 0 0 0 -.7.45l-.17.22a.64.64 0 0 1 -.15.18 3.59 3.59 0 0 0 -.53.4c-.17.15-.38.29-.57.43a1.72 1.72 0 0 0 -.57.66 3.73 3.73 0 0 0 -.39 1.43v.48.19a.54.54 0 0 1 -.08.28l-.06.13a2.84 2.84 0 0 0 -.22.67v.06a2.79 2.79 0 0 0 0 .79v.21a3 3 0 0 1 0 .44v.34a1.61 1.61 0 0 1 -.06.75l-.04.15a1.28 1.28 0 0 0 -.3.35 2.17 2.17 0 0 0 -.14 1.28 1.75 1.75 0 0 0 .36.69 1.38 1.38 0 0 1 .16.24.35.35 0 0 1 0 .13s0 .1 0 .16a1.24 1.24 0 0 0 .3.65.93.93 0 0 0 .16.13 2.63 2.63 0 0 1 .06.47v.35l.1.35v.23a16 16 0 0 0 1.3 3.83 6.48 6.48 0 0 0 2.54 3.15 4 4 0 0 0 1.28.49 3.48 3.48 0 0 0 .63.06 5 5 0 0 0 4.08-2.84c.34-.59.62-1.19.88-1.75.09-.2.16-.4.24-.61s.11-.31.17-.46a2.25 2.25 0 0 1 .18-.31 2.81 2.81 0 0 0 .29-.52 10.13 10.13 0 0 1 .6-1.19v-.06l.09-.16a6.29 6.29 0 0 0 .87-2.12v-.32c0-.21.06-.43.09-.64a1.81 1.81 0 0 0 -.13-.89c0-.07 0-.14-.07-.22a.52.52 0 0 0 -.38-.38l.06-.24c0-.1 0-.2.07-.3a6.18 6.18 0 0 0 .12-1.95c0-.23 0-.46 0-.69a6.14 6.14 0 0 0 0-.81 2.48 2.48 0 0 0 -.19-.62c0-.08-.06-.15-.09-.23a1.84 1.84 0 0 1 -.05-.41 2.08 2.08 0 0 0 -.21-.92 2.81 2.81 0 0 0 -.35-.47l-.06-.06-.22-.27c-.15-.19-.31-.39-.48-.57a3.23 3.23 0 0 0 -1.45-.75 3.87 3.87 0 0 1 -.74-.28 1.36 1.36 0 0 1 -.59-.48 1.93 1.93 0 0 0 -1.18-1.09 4.1 4.1 0 0 1 -.44-.16 3.11 3.11 0 0 0 -1-.28h-.13z" fill="#fff"></path><path d="m85.18 104.21c-.74 0-3-.3-3.51-1.28a6.61 6.61 0 0 0 -.47-.68 7.21 7.21 0 0 1 -1.6-3.65 8 8 0 0 0 -.6-2.14 13.57 13.57 0 0 1 -1.1-4.94c-.42-5.07-1.23-7.16-1.84-8a2.64 2.64 0 0 0 -.83-.75 1.88 1.88 0 0 1 -1-1.4 2.7 2.7 0 0 0 -1.23-1.89l-.12-.09a1.18 1.18 0 0 1 -.66-1 .81.81 0 0 1 .78-.32 6 6 0 0 1 .75.06 2.89 2.89 0 0 1 1.95 1.87 15.61 15.61 0 0 1 1.12-4.66 13.67 13.67 0 0 1 1.2-2 1.73 1.73 0 0 1 .89-.81.44.44 0 0 1 .22.11c.11.14.18.46-.16 1.73-.1.37-.19.65-.27.87a14.81 14.81 0 0 0 .75-1.77 2.11 2.11 0 0 1 1-1.06.37.37 0 0 1 .29.17c.07.1.27.42-.2 2.11 0 .16-.12.38-.21.65l.46-.9a1.71 1.71 0 0 1 1.08-1 .34.34 0 0 1 .3.17 2.87 2.87 0 0 1 -.35 1.88 8.78 8.78 0 0 0 -.48 1.42 2.1 2.1 0 0 1 -.19.57 9 9 0 0 0 -.35 1.26l.69-1.33c.43-.84.71-1.51.71-1.51a1.45 1.45 0 0 1 .87-.9h.1a.36.36 0 0 1 .21.19 2.57 2.57 0 0 1 -.22 1.63c-.3.88-.83 3.16-.83 3.18a7.3 7.3 0 0 0 -.06 1.15v.23a9.45 9.45 0 0 1 -.17 2.94c-.27.68-.23 1 .14 2.49.14.59.38 1.46.65 2.42.43 1.57.93 3.35 1.14 4.48a16.3 16.3 0 0 0 1.51 4.38 43 43 0 0 0 2.85 4.24.17.17 0 0 1 0 .26 12.61 12.61 0 0 1 -2.91 1.55h-.3zm-6.79-28.3a1.74 1.74 0 0 0 -.23.6c.08-.21.16-.42.25-.63z" fill="#450607"></path><path d="m80.49 72.58c.4.06.13 1.27-.09 2.05s-1.26 3.47-1.26 3.47l1.86-3.59a1.64 1.64 0 0 1 .92-.87c.34 0 .09 1.15-.23 1.8s-.57 1.85-.65 2a8 8 0 0 0 -.41 1.5 1 1 0 0 0 0 .52s.57-1.07 1-1.92.77-1.54.77-1.54a1.61 1.61 0 0 1 .66-.78c.26.09.19.71-.11 1.6s-.79 3.18-.79 3.18a7.29 7.29 0 0 0 -.07 1.2 10.68 10.68 0 0 1 -.15 3.09c-.28.72-.24 1 .13 2.59s1.45 5.12 1.79 6.92a16.63 16.63 0 0 0 1.53 4.42 42.39 42.39 0 0 0 2.88 4.27 13.34 13.34 0 0 1 -2.84 1.51h-.25c-.9 0-2.89-.37-3.37-1.19s-1.66-1.74-2-4.27-1.4-2.28-1.81-7.03-1.13-7.06-1.87-8.11-1.48-.7-1.79-2.09a3 3 0 0 0 -1.39-2c-.3-.23-1.23-1 .06-1a5.78 5.78 0 0 1 .72.06c1.41.18 2 2.44 2 2.44s.37-3.81 1.27-5.39a13.59 13.59 0 0 1 1.18-2 2.14 2.14 0 0 1 .76-.75c.18 0 .23.37-.11 1.62-.46 1.72-.65 1.33-.83 2.22a7.29 7.29 0 0 0 -.15 1.5 20 20 0 0 1 1-2.68 14.94 14.94 0 0 0 .78-1.85 2.44 2.44 0 0 1 .88-.94m0-.34a1.71 1.71 0 0 0 -1.1 1 .92.92 0 0 0 -.11-.7.45.45 0 0 0 -.36-.18 1.65 1.65 0 0 0 -1 .9 13.81 13.81 0 0 0 -1.19 2 14.18 14.18 0 0 0 -1.07 4.16 2.65 2.65 0 0 0 -1.89-1.38 6.16 6.16 0 0 0 -.79-.1 1 1 0 0 0 -1 .45 1.21 1.21 0 0 0 .72 1.18l.12.09a2.55 2.55 0 0 1 1.16 1.76 2 2 0 0 0 1.06 1.51 2.49 2.49 0 0 1 .78.71c.6.84 1.4 2.9 1.81 7.94a13.71 13.71 0 0 0 1.11 5 7.72 7.72 0 0 1 .63 2.09 7.46 7.46 0 0 0 1.63 3.73 6.5 6.5 0 0 1 .46.66c.58 1 2.76 1.36 3.66 1.36h.3a12.21 12.21 0 0 0 3-1.58.34.34 0 0 0 .06-.52 42.61 42.61 0 0 1 -2.83-4.2 16.11 16.11 0 0 1 -1.49-4.33c-.22-1.13-.71-2.92-1.15-4.49-.26-.94-.51-1.83-.65-2.42-.38-1.56-.38-1.79-.11-2.4a9.53 9.53 0 0 0 .19-3v-.23a7 7 0 0 1 .06-1.14s.53-2.28.82-3.14c.44-1.29.27-1.65.21-1.76a.53.53 0 0 0 -.31-.28h-.16a1.46 1.46 0 0 0 -1 1s-.23.54-.57 1.23v-.09a8.66 8.66 0 0 1 .49-1.43 3 3 0 0 0 .34-2 .49.49 0 0 0 -.34-.3h-.09a1.33 1.33 0 0 0 -1 .63 1.92 1.92 0 0 0 0-1.44.53.53 0 0 0 -.37-.24h-.05z" fill="#fff"></path><path d="m127.21 105a3.45 3.45 0 0 1 -2-1.06 2.81 2.81 0 0 0 -1.58-.77.17.17 0 0 1 -.15-.09.17.17 0 0 1 0-.18l.61-.89 2.85-4.53a5.07 5.07 0 0 0 1-3.06 41.81 41.81 0 0 1 1.06-6.92c.2-.52.16-.63-.29-1.91l-.13-.38a7.85 7.85 0 0 1 -.59-3.56 10.94 10.94 0 0 0 -.74-3.47c-.47-1.54-.39-1.88.09-2.1h.15a.42.42 0 0 1 .22.07 1 1 0 0 1 .12-1.1.34.34 0 0 1 .27-.05 1.31 1.31 0 0 1 .69.37l.77.63c.54 1 .81 1.5.82 1.57s.65 1 1.09 1.69l.44-.52a.18.18 0 0 1 .09-.06l.85-.22a.17.17 0 0 1 .14.07l.61.81.27.8.14-.05a3 3 0 0 1 2.36-1.93h.23a.48.48 0 0 1 .53.3 1.17 1.17 0 0 1 -.61 1 1.88 1.88 0 0 0 -.74 1.72 4.68 4.68 0 0 1 -.9 2.76 4.85 4.85 0 0 0 -.54 2.28 12.09 12.09 0 0 1 -.19 1.5 20 20 0 0 0 -.13 3.23 40.16 40.16 0 0 1 -.16 4.51 18 18 0 0 1 -1.81 5.29 15.45 15.45 0 0 0 -.64 1.48 2.37 2.37 0 0 1 -1.45 1.62 19 19 0 0 1 -2.71 1h-.08zm1.19-27.8a4 4 0 0 0 .34.8c.08.14.17.33.25.54a7.14 7.14 0 0 0 -.59-1.34z" fill="#450607"></path><path d="m128.1 75.12a1.25 1.25 0 0 1 .57.32l.77.72s.75 1.4.77 1.49 1.24 1.93 1.24 1.93l.59-.7.85-.22.61.81.31.92.4-.15a2.75 2.75 0 0 1 2.24-1.89h.21c.69 0 .3.71-.18 1a2 2 0 0 0 -.81 1.86 4.5 4.5 0 0 1 -.87 2.67c-.67 1-.46 2.44-.76 3.84s0 5-.29 7.76-2 5.49-2.44 6.74a2.22 2.22 0 0 1 -1.34 1.51 21 21 0 0 1 -2.67 1h-.07a3.28 3.28 0 0 1 -1.9-1 2.91 2.91 0 0 0 -1.69-.81l.61-.89 2.86-4.53a5.15 5.15 0 0 0 1-3.14 41.67 41.67 0 0 1 1.13-6.82c.24-.63.15-.76-.41-2.4a7.6 7.6 0 0 1 -.59-3.47 10.48 10.48 0 0 0 -.74-3.55c-.48-1.59-.33-1.74 0-1.9h.08a1.41 1.41 0 0 1 .64.76 3.28 3.28 0 0 0 .41 1.09 20.32 20.32 0 0 1 .92 2.33s-.13-.81-.2-1.31a6.45 6.45 0 0 0 -1.07-2.46c-.61-.83-.43-1.33-.26-1.48a.16.16 0 0 1 .11 0m0-.34a.51.51 0 0 0 -.34.12 1 1 0 0 0 -.25 1 .52.52 0 0 0 -.19 0c-.65.31-.62.87-.18 2.31a11.09 11.09 0 0 1 .73 3.38 8 8 0 0 0 .6 3.65l.13.38c.45 1.29.46 1.34.29 1.79a41.18 41.18 0 0 0 -1.15 6.92 5 5 0 0 1 -.89 2.92v.05l-2.86 4.53-.6.88a.34.34 0 0 0 .28.54 2.7 2.7 0 0 1 1.46.73 3.59 3.59 0 0 0 2.13 1.1h.1a17.69 17.69 0 0 0 2.79-1 2.55 2.55 0 0 0 1.52-1.72 15.21 15.21 0 0 1 .64-1.46 18.07 18.07 0 0 0 1.82-5.35 40.11 40.11 0 0 0 .16-4.53 19.94 19.94 0 0 1 .13-3.2 12.27 12.27 0 0 0 .19-1.52 4.74 4.74 0 0 1 .52-2.2 4.83 4.83 0 0 0 .93-2.85 1.68 1.68 0 0 1 .66-1.58 1.3 1.3 0 0 0 .68-1.24.64.64 0 0 0 -.69-.43h-.26a3.29 3.29 0 0 0 -2.48 1.78l-.15-.44a.34.34 0 0 0 -.05-.1l-.61-.81a.34.34 0 0 0 -.27-.14h-.12l-.85.22a.34.34 0 0 0 -.18.11l-.29.35c-.46-.7-.89-1.38-1-1.49s-.18-.39-.79-1.52a.34.34 0 0 0 -.07-.09l-.77-.72a1.39 1.39 0 0 0 -.8-.42z" fill="#fff"></path><path d="m134.55 81.82a30.36 30.36 0 0 1 -.73-3.34 7.3 7.3 0 0 0 -1.4-3.14 2.92 2.92 0 0 0 -1.19-.78s-1.08-.2-.46.67a7.3 7.3 0 0 1 1 1.8c.12.35.61 2.15.61 2.15" fill="#450607" stroke="#fff" stroke-linecap="round" stroke-linejoin="round" stroke-width=".34"></path><path d="m132.5 79.39s-1-2.83-1.37-3.38-1.13-1.68-1.13-1.68a.63.63 0 0 0 -.72-.2c-.35.22-.32.39.14 1.28a13.77 13.77 0 0 1 1 2.31l.58 2.28" fill="#450607" stroke="#fff" stroke-linecap="round" stroke-linejoin="round" stroke-width=".34"></path><path d="m106 105.82a3.63 3.63 0 0 1 -2.3-1 15.24 15.24 0 0 0 -1.21-1.19l-.65-.6c-.62-.59-1.33-3.09-1.55-3.92h-.18a.94.94 0 0 1 -.51-.11.86.86 0 0 1 -.4-.64 4.36 4.36 0 0 0 -.15-.51 20.36 20.36 0 0 1 -.45-3.65.78.78 0 0 1 .17-.6.48.48 0 0 1 .31-.15 9.84 9.84 0 0 1 .08-2.79 3.47 3.47 0 0 1 .27-.78l.21-.48c.1-.24.15-.39.2-.5a5.51 5.51 0 0 1 .36-.8l.14-.27a3.43 3.43 0 0 1 .66-1 2.49 2.49 0 0 1 1-.76 1.51 1.51 0 0 0 .79-.84 2.89 2.89 0 0 0 .06-.29c0-.08 0-.18.09-.46s.11-.5.36-.5a.19.19 0 0 0 .1-.06.85.85 0 0 1 .54-.28h.21l.32-.09a4.32 4.32 0 0 1 .49-.14 1.38 1.38 0 0 1 .31 0 .43.43 0 0 1 .3.11h.33a1.14 1.14 0 0 0 .33-.07 1.23 1.23 0 0 1 .32-.06.72.72 0 0 1 .5.25 1.45 1.45 0 0 1 .29.37.74.74 0 0 0 .21.26.79.79 0 0 1 .34.46c.06.11.08.14.15.14h.14.12a.58.58 0 0 1 .38.17.19.19 0 0 0 .11.07.85.85 0 0 1 .55.21 3.18 3.18 0 0 0 .31.2.74.74 0 0 1 .35.33 2.24 2.24 0 0 1 .47.31c.23.18 1.42 1.81 1.53 2a1.11 1.11 0 0 1 .18.43.6.6 0 0 1 .28.54 1.87 1.87 0 0 1 0 .26.17.17 0 0 0 0 .14.57.57 0 0 1 .25.57.61.61 0 0 0 0 .13.74.74 0 0 1 0 .52.8.8 0 0 0 0 .26.89.89 0 0 0 .08.26 1.2 1.2 0 0 1 .09.31.79.79 0 0 1 0 .35.59.59 0 0 0 0 .24v.25a7.31 7.31 0 0 0 .15 1.15.77.77 0 0 1 .33.37 2.55 2.55 0 0 1 -.36 1.65c-.07.17-.13.34-.18.48a4.56 4.56 0 0 1 -.43.86 3.61 3.61 0 0 0 -.3.57c-.08.22-.22.72-.4 1.36s-.42 1.5-.67 2.32a6.52 6.52 0 0 1 -2.11 3.11 5.39 5.39 0 0 1 -2.89 1.6h-.02z" fill="#450607"></path><path d="m105.25 83.64a3.73 3.73 0 0 0 .36.13h.27a1.37 1.37 0 0 0 .39-.08 1 1 0 0 1 .25 0 .51.51 0 0 1 .33.19 5.56 5.56 0 0 0 .52.64 1.09 1.09 0 0 1 .32.49.38.38 0 0 0 .32.14h.2.06a4.41 4.41 0 0 0 .49.24 1.57 1.57 0 0 1 .73.38 1.29 1.29 0 0 1 .32.32 1.83 1.83 0 0 1 .49.32c.15.12 1.25 1.6 1.45 1.89a1.77 1.77 0 0 0 .29.58c.2.12.09.23.14.38a.68.68 0 0 0 .2.49 1 1 0 0 1 .15.58 3.19 3.19 0 0 1 -.06.7c0 .26.15.38.17.58s-.09.29-.06.58a7.6 7.6 0 0 0 .2 1.51 1.29 1.29 0 0 1 .32.35 5.18 5.18 0 0 1 -.55 1.92c-.2.58-.55 1-.73 1.42s-.58 2.09-1.08 3.69a6.32 6.32 0 0 1 -2.06 3 5.1 5.1 0 0 1 -2.69 1.51 3.42 3.42 0 0 1 -2.09-.87c-.2-.29-1.22-1.19-1.89-1.83s-1.54-4-1.54-4a1.31 1.31 0 0 1 -.37.06.7.7 0 0 1 -.36-.09 1.65 1.65 0 0 1 -.44-1 20.09 20.09 0 0 1 -.44-3.57c0-.38.12-.47.27-.47a.62.62 0 0 1 .29.09 9.12 9.12 0 0 1 0-3.08 6 6 0 0 1 .47-1.22 10 10 0 0 1 .55-1.28 4 4 0 0 1 .76-1.19 2.24 2.24 0 0 1 .9-.7 1.75 1.75 0 0 0 .93-1c.09-.38 0-.23.15-.76.06-.26.07-.29.1-.29a.38.38 0 0 0 .24-.12.84.84 0 0 1 .64-.26c.38-.09.32-.12.81-.23h.25m0-.52a1.63 1.63 0 0 0 -.37.05 4.43 4.43 0 0 0 -.52.15l-.29.08h-.18a1.1 1.1 0 0 0 -.68.34.71.71 0 0 0 -.55.69c-.07.3-.08.4-.09.48a2.68 2.68 0 0 1 -.05.27 1.28 1.28 0 0 1 -.64.66 2.73 2.73 0 0 0 -1.06.82 3.66 3.66 0 0 0 -.7 1l-.09.2a5.91 5.91 0 0 0 -.38.82c0 .11-.1.26-.2.5s-.15.36-.2.47a3.78 3.78 0 0 0 -.29.83 10.12 10.12 0 0 0 -.11 2.66.73.73 0 0 0 -.22.16 1 1 0 0 0 -.24.79 20.62 20.62 0 0 0 .45 3.77 4.26 4.26 0 0 1 .14.48 1.12 1.12 0 0 0 .52.81 1.2 1.2 0 0 0 .61.16c.29 1 .95 3.24 1.57 3.84l.66.61c.45.41 1.05 1 1.17 1.14a3.82 3.82 0 0 0 2.5 1.09h.02a5.39 5.39 0 0 0 3-1.65 6.87 6.87 0 0 0 2.21-3.25c.25-.82.49-1.66.67-2.33s.31-1.13.39-1.34a3.42 3.42 0 0 1 .28-.53 4.81 4.81 0 0 0 .45-.91c0-.14.11-.3.18-.47a2.59 2.59 0 0 0 .35-1.86 1 1 0 0 0 -.34-.41c0-.23-.09-.78-.11-1s0-.2 0-.26a.35.35 0 0 1 0-.15 1.06 1.06 0 0 0 0-.45 1.44 1.44 0 0 0 -.11-.37.65.65 0 0 1 -.06-.19.87.87 0 0 1 0-.17 1 1 0 0 0 0-.65s0 0 0-.05a.86.86 0 0 0 -.29-.74 1.24 1.24 0 0 0 0-.23.72.72 0 0 0 -.3-.63 1.37 1.37 0 0 0 -.22-.49s-1.3-1.79-1.55-2a3 3 0 0 0 -.47-.33 1.12 1.12 0 0 0 -.42-.36 3 3 0 0 1 -.29-.19 1.13 1.13 0 0 0 -.63-.26.82.82 0 0 0 -.55-.24h-.19a1 1 0 0 0 -.42-.54.53.53 0 0 1 -.13-.18 1.7 1.7 0 0 0 -.33-.42 1 1 0 0 0 -.68-.32 1.46 1.46 0 0 0 -.39.06l-.26.06h-.21a.68.68 0 0 0 -.42-.13z" fill="#fff"></path><path d="m18.46 119.48c-1.26.18-2.29.32-2.83.46a.61.61 0 0 0 -.62.62 5.17 5.17 0 0 0 0 .62.1.1 0 0 1 -.09.12c-.06 0-.12 0-.14-.2-.1-.74-.18-1.61-.19-1.69s-.19-1-.24-1.4c0-.15 0-.22.08-.23a.09.09 0 0 1 .11.09 1.81 1.81 0 0 0 .12.39.68.68 0 0 0 .77.3c.55 0 1.58-.16 2.84-.34l5.5-.78-.31-2a1.46 1.46 0 0 0 -.61-1.31 2.13 2.13 0 0 0 -.45-.16.13.13 0 0 1 -.14-.12.1.1 0 0 1 .09-.11c.14 0 1.35.09 1.46.09a.52.52 0 0 1 .27.1 4.78 4.78 0 0 0 -.07.62c0 .39.07.92.09 1.07l.72 5.11a6.79 6.79 0 0 0 .2 1c.06.2.11.31.12.38s-.07.07-.15.08c-.4.06-1.35.14-1.5.17a.15.15 0 0 1 -.19-.1c0-.06 0-.1.22-.14h.14c.39-.1.65-.44.49-1.73l-.15-1.68z" fill="#702721" stroke="#702721" stroke-width=".61"></path><path d="m21.94 125.6c2-.53 2.34-.62 2.74-.76a.6.6 0 0 0 .56-.73 4.35 4.35 0 0 0 -.09-.46.13.13 0 0 1 .08-.13c.08 0 .12 0 .16.18.16.6.36 1.5.38 1.57s.36 1.24.47 1.65a4.48 4.48 0 0 1 .1 2.61 2.32 2.32 0 0 1 -1.5 1.38 3.86 3.86 0 0 1 -3.35-.85c-1.07 1.44-2 2.66-2.57 3.64a2.58 2.58 0 0 0 -.42 2.19.12.12 0 0 1 -.07.15c-.08 0-.13 0-.19-.29l-.24-.82a2.76 2.76 0 0 1 -.12-1.48 7 7 0 0 1 1.4-2.3c.54-.74 1.22-1.55 1.49-1.92a.21.21 0 0 0 0-.2l-.42-1.69a.09.09 0 0 0 -.13-.06l-.3.08c-1.23.33-2.22.59-2.73.79a.62.62 0 0 0 -.54.71 5 5 0 0 0 .1.6.1.1 0 0 1 -.08.13c-.06 0-.12 0-.16-.18-.19-.72-.37-1.57-.39-1.64s-.28-.89-.39-1.3c0-.14 0-.22 0-.24a.11.11 0 0 1 .13.08 2 2 0 0 0 .17.39c.13.24.38.21.77.17a27 27 0 0 0 2.79-.66zm-.78 1.4a.19.19 0 0 0 -.14.13 4.64 4.64 0 0 0 .19 1.51 1.78 1.78 0 0 0 .49.93 2.36 2.36 0 0 0 2.17.28 2.28 2.28 0 0 0 1.9-3 6 6 0 0 0 -.33-.93.17.17 0 0 0 -.18-.07z" fill="#702721" stroke="#702721" stroke-width=".61"></path><path d="m29 136.34c.47 0 .56 0 .6.11a.65.65 0 0 1 -.33.48c-.43.44-4.68 4.5-6.23 6-.91.9-.93 1.31-.91 1.62a1.9 1.9 0 0 0 .13.53.15.15 0 0 1 0 .2.29.29 0 0 1 -.22-.25c-.07-.19-.45-1.13-.77-2a.65.65 0 0 1 -.09-.48c.06 0 .07 0 .12.05a.25.25 0 0 0 .38 0l2.32-2.27a.11.11 0 0 0 0-.14l-1.17-2.93a.14.14 0 0 0 -.15-.09l-2.25.06a2.74 2.74 0 0 0 -.9.14.39.39 0 0 0 -.16.57v.12.17s-.13 0-.18-.15c-.12-.3-.36-1-.41-1.16s-.35-.75-.56-1.27c-.06-.16-.07-.26 0-.29a.12.12 0 0 1 .15.07 3.81 3.81 0 0 0 .18.36 1.52 1.52 0 0 0 1.55.62zm-4.5 3.46c0 .06.05 0 .1 0l2.86-2.6q.24-.2-.08-.2l-3.84.16q-.1 0-.07.08z" fill="#702721" stroke="#702721" stroke-width=".61"></path><path d="m28.76 144.63c1.79-1 2.12-1.19 2.47-1.42a.6.6 0 0 0 .36-.85 4.34 4.34 0 0 0 -.2-.42.13.13 0 0 1 0-.15c.07 0 .13 0 .2.14.3.54.71 1.33.75 1.4s.53.88.93 1.59c.67 1.19 2 3.32 1.37 5.53a4.65 4.65 0 0 1 -2.27 2.81 5.29 5.29 0 0 1 -4 .53 5.49 5.49 0 0 1 -3.36-2.87c-.29-.51-.61-1.18-.87-1.71s-.45-1-.48-1-.15-.24-.29-.48-.32-.51-.43-.7-.08-.21 0-.24a.11.11 0 0 1 .15 0 2 2 0 0 0 .26.34c.18.2.42.11.79 0a27 27 0 0 0 2.53-1.33zm-.64 1.79c-1.22.69-2.29 1.29-2.5 1.42a2.5 2.5 0 0 0 -.75.6c-.13.27-.14.83.65 2.24a4.59 4.59 0 0 0 2.61 2.21 4.45 4.45 0 0 0 3.26-.6 4.58 4.58 0 0 0 2.26-2.75 5.65 5.65 0 0 0 -.88-4.59 3.66 3.66 0 0 0 -.48-.67.23.23 0 0 0 -.31 0z" fill="#702721" stroke="#702721" stroke-width=".61"></path><path d="m34.1 157.71c-1 .74-1.88 1.35-2.29 1.72a.6.6 0 0 0 -.28.81 5.6 5.6 0 0 0 .31.54.11.11 0 0 1 0 .15c-.05 0-.12 0-.22-.11-.44-.62-.92-1.37-1-1.42s-.58-.73-.83-1.07c-.08-.11-.1-.2 0-.24a.11.11 0 0 1 .15 0 2 2 0 0 0 .29.31.65.65 0 0 0 .77-.1c.48-.27 1.34-.86 2.37-1.6l1.9-1.36c1.67-1.19 2-1.41 2.3-1.68a.61.61 0 0 0 .33-.77 2.48 2.48 0 0 0 -.21-.37.12.12 0 0 1 0-.15c.06 0 .12 0 .22.11.26.37.73 1.08.78 1.14s.58.75.82 1.1c.09.13.1.2 0 .24a.13.13 0 0 1 -.15 0 1.53 1.53 0 0 0 -.22-.26c-.28-.26-.48-.21-.88 0s-.65.45-2.32 1.64z" fill="#702721" stroke="#702721" stroke-width=".61"></path><path d="m35.23 163.49a5 5 0 0 1 1.85-3.84 5.23 5.23 0 0 1 3.73-1.22 5.65 5.65 0 0 1 3.81 2.2 13.42 13.42 0 0 1 1.2 1.6 9.79 9.79 0 0 0 .77 1.19c.09.11.07.17 0 .22s-.22.15-.6.45-.89.76-1 .87-.26.13-.31.07 0-.14.14-.27a1.72 1.72 0 0 0 .61-1.31 4.46 4.46 0 0 0 -1.23-2.5 4.21 4.21 0 0 0 -2.72-1.71 4.32 4.32 0 0 0 -3.48 1.34 4.81 4.81 0 0 0 -.35 6.87 2.89 2.89 0 0 0 2 1.28 2.47 2.47 0 0 0 1.18-.33c.13-.07.17-.09.23 0a.18.18 0 0 1 -.06.22 13.86 13.86 0 0 1 -1.49.87.45.45 0 0 1 -.52 0 8.09 8.09 0 0 1 -1.85-1.66 6.45 6.45 0 0 1 -1.91-4.34z" fill="#702721" stroke="#702721" stroke-width=".61"></path><path d="m45.83 170.84c-.87.93-1.58 1.7-1.9 2.14a.6.6 0 0 0 -.11.85 5.57 5.57 0 0 0 .41.47.11.11 0 0 1 0 .15s-.12 0-.23-.07c-.56-.52-1.18-1.16-1.22-1.2s-.72-.6-1-.89c-.1-.1-.14-.17-.09-.23a.11.11 0 0 1 .15 0 2 2 0 0 0 .35.24.65.65 0 0 0 .74-.27c.42-.36 1.14-1.11 2-2l1.59-1.71c1.4-1.5 1.65-1.78 1.91-2.11a.61.61 0 0 0 .17-.82 2.45 2.45 0 0 0 -.28-.32.12.12 0 0 1 0-.15c.05-.06.12 0 .23.07.33.31.94.91 1 1s.72.62 1 .91c.11.11.14.17.09.23a.13.13 0 0 1 -.15 0 1.55 1.55 0 0 0 -.27-.21c-.33-.2-.51-.11-.85.21s-.55.57-1.95 2.07z" fill="#702721" stroke="#702721" stroke-width=".61"></path><path d="m56.43 171.38c2.47 1.84 3.21 4.74 1.37 7.21a5.3 5.3 0 0 1 -7.63 1 5.07 5.07 0 0 1 -1.17-7.32 5.24 5.24 0 0 1 7.43-.89zm-5.62 8.05c1 .73 3.36 1.69 5.64-1.38 1.9-2.54 1.34-5-.39-6.32s-4-1.2-5.73 1.1c-1.83 2.47-1.5 5.17.48 6.6z" fill="#702721" stroke="#702721" stroke-width=".61"></path><path d="m59.18 183.36c-.49 1-.54 1.32-.25 1.58a3.22 3.22 0 0 0 .56.39.11.11 0 0 1 0 .15c0 .07-.13.05-.27 0-.68-.37-1.14-.67-1.25-.73s-.64-.29-1.18-.59c-.12-.07-.18-.12-.14-.2a.11.11 0 0 1 .15 0 2.14 2.14 0 0 0 .53.2c.35.08.56-.21 1.13-1.26l3.61-6.66c.25-.47.39-.55.48-.5a1.24 1.24 0 0 1 .27.61c.09.3.83 3.1 1.65 6 .52 1.88 1.06 4 1.22 4.54l3-5.89c.39-.76.47-1.06.13-1.32a4.32 4.32 0 0 0 -.56-.37.11.11 0 0 1 0-.16c0-.07.14 0 .28 0 .55.3 1.11.64 1.24.71s.55.26 1 .53c.12.07.21.13.17.2a.16.16 0 0 1 -.2 0 1.56 1.56 0 0 0 -.3-.13c-.44-.13-.59.08-1 .78l-3.72 6.8c-.42.77-.47.83-.55.78a2.52 2.52 0 0 1 -.53-1.21c-.06-.18-.87-2.83-1.43-4.84-.6-2.22-1.18-4.38-1.33-5z" fill="#702721" stroke="#702721" stroke-width=".61"></path><path d="m75.52 182.43c.31-.35.4-.4.49-.36a.65.65 0 0 1 .13.57c0 .61.14 6.5.21 8.67 0 1.28.33 1.57.58 1.77a1.89 1.89 0 0 0 .48.27.15.15 0 0 1 .12.16.29.29 0 0 1 -.33 0c-.19-.07-1.13-.43-2-.8a.65.65 0 0 1 -.42-.26c0-.06.05 0 .12-.05a.25.25 0 0 0 .24-.29l-.07-3.27a.11.11 0 0 0 -.07-.14l-3-1.12a.14.14 0 0 0 -.17.05l-1.48 1.7a2.73 2.73 0 0 0 -.5.76.39.39 0 0 0 .31.5h.12c.1 0 .11.09.09.15s-.11.07-.23 0c-.31-.12-1-.43-1.13-.48s-.79-.25-1.31-.45c-.16-.06-.24-.12-.21-.2a.12.12 0 0 1 .15-.06l.39.11a1.52 1.52 0 0 0 1.51-.72zm-.52 5.69c.06 0 .07 0 .08-.07v-3.87q0-.33-.22-.08l-2.47 2.9v.1zm3.93-6.91c0 .16-.07.17-.12.15a2 2 0 0 0 -.44-.17 10 10 0 0 0 -2.44-.23h-.27a.09.09 0 0 1 0-.11.16.16 0 0 1 .15-.08c.66-.16 2.32-.46 2.45-.48a1.07 1.07 0 0 1 .48 0 .23.23 0 0 1 .1.19c0 .14.02.38.07.73z" fill="#702721" stroke="#702721" stroke-width=".61"></path><path d="m82.19 190.83c-.49 1.88-.66 2.66-.48 2.95a2.91 2.91 0 0 0 1.68.76 2.1 2.1 0 0 0 1.7 0 1.62 1.62 0 0 0 .5-.64.17.17 0 0 1 .18-.13c.06 0 .07.08 0 .22a8.35 8.35 0 0 1 -.53 1.23c-.17.28-.23.31-.93.13-.95-.25-1.68-.45-2.29-.65l-1.44-.41-.55-.13-.73-.16c-.14 0-.2-.09-.18-.16a.11.11 0 0 1 .13-.08 1.93 1.93 0 0 0 .42 0c.27 0 .36-.23.52-.59a27 27 0 0 0 .8-2.75l.59-2.26c.52-2 .61-2.35.69-2.76a.6.6 0 0 0 -.36-.85l-.44-.15a.13.13 0 0 1 -.08-.13c0-.08.09-.09.24 0 .6.16 1.42.4 1.5.42l1.47.35c.14 0 .2.09.18.16a.12.12 0 0 1 -.13.06l-.44-.08c-.41 0-.54.15-.69.59s-.22.76-.73 2.75z" fill="#702721" stroke="#702721" stroke-width=".61"></path><path d="m90.77 192.63c-.21 1.26-.39 2.28-.42 2.83a.6.6 0 0 0 .37.77 5.47 5.47 0 0 0 .6.17.11.11 0 0 1 .09.13c0 .06-.08.1-.23.07-.75-.13-1.62-.32-1.68-.33s-.93-.11-1.34-.18c-.14 0-.21-.07-.2-.14a.11.11 0 0 1 .13-.09 1.94 1.94 0 0 0 .42 0 .65.65 0 0 0 .47-.63c.15-.53.34-1.55.55-2.81l.39-2.3c.34-2 .4-2.39.44-2.81a.61.61 0 0 0 -.31-.78 2.39 2.39 0 0 0 -.41-.12.12.12 0 0 1 -.09-.13c0-.08.08-.1.23-.07.44.08 1.28.25 1.36.26s.94.13 1.35.2c.15 0 .21.07.2.14a.13.13 0 0 1 -.13.09 1.51 1.51 0 0 0 -.34 0c-.38 0-.49.19-.6.64s-.15.78-.49 2.8z" fill="#702721" stroke="#702721" stroke-width=".61"></path><path d="m94.53 196.87c-.18-.11-.19-.16-.16-.51.05-.65.16-1.17.19-1.39s0-.21.13-.21a.13.13 0 0 1 .11.17 2 2 0 0 0 0 .48 2 2 0 0 0 2 1.48 1.78 1.78 0 0 0 2.2-1.59c.08-.95-.4-1.44-1.53-2.43l-.58-.51c-1.38-1.22-1.8-2.07-1.72-3 .13-1.55 1.43-2.38 3.22-2.24a6.62 6.62 0 0 1 1.4.27 1.8 1.8 0 0 0 .48.1c.11 0 .14 0 .13.1a14 14 0 0 0 -.18 1.39c0 .2 0 .29-.13.29s-.1-.07-.11-.18a2.43 2.43 0 0 0 -.15-.67 2 2 0 0 0 -1.71-.79 1.57 1.57 0 0 0 -1.93 1.28c-.07.84.31 1.35 1.59 2.38l.37.3c1.57 1.27 2.07 2.23 2 3.36a2.58 2.58 0 0 1 -1.45 2.14 4.19 4.19 0 0 1 -2.21.29 5 5 0 0 1 -1.96-.51z" fill="#702721" stroke="#702721" stroke-width=".61"></path><path d="m113.06 193.36c.11 1.27.2 2.31.31 2.85a.61.61 0 0 0 .59.65 5.4 5.4 0 0 0 .62 0 .1.1 0 0 1 .12.1c0 .06-.05.11-.21.13-.74.07-1.62.1-1.69.1s-1 .13-1.41.17c-.16 0-.22 0-.23-.09a.09.09 0 0 1 .1-.1 1.81 1.81 0 0 0 .4-.1.68.68 0 0 0 .34-.75c0-.55-.08-1.59-.19-2.86l-.49-5.53-2 .2a1.47 1.47 0 0 0 -1.34.54 2.16 2.16 0 0 0 -.18.44.13.13 0 0 1 -.13.14.1.1 0 0 1 -.1-.1c0-.14.16-1.34.17-1.45a.52.52 0 0 1 .12-.26 4.78 4.78 0 0 0 .62.1h1.07l5.14-.45a6.82 6.82 0 0 0 1-.15c.2 0 .32-.09.38-.1s.07.07.08.15c0 .4.07 1.35.09 1.51a.15.15 0 0 1 -.11.18c-.06 0-.1 0-.13-.22v-.14c-.08-.4-.4-.67-1.71-.58l-1.71.12z" fill="#702721" stroke="#702721" stroke-width=".61"></path><path d="m127.93 190.7c.28 1.24.53 2.26.71 2.77s.22.6.64.57a5.47 5.47 0 0 0 .61-.07.11.11 0 0 1 .15.08c0 .06-.05.12-.2.16-.73.17-1.59.31-1.66.33s-.92.26-1.31.34c-.15 0-.22 0-.24-.06a.11.11 0 0 1 .08-.13 1.81 1.81 0 0 0 .38-.15.66.66 0 0 0 .21-.78c-.06-.54-.28-1.52-.56-2.76l-.29-1.29a.07.07 0 0 0 -.09-.06l-5.57 1.26a.07.07 0 0 0 -.06.09l.27 1.3c.28 1.24.5 2.23.69 2.75a.6.6 0 0 0 .64.57 5.58 5.58 0 0 0 .62-.08.1.1 0 0 1 .13.08c0 .06 0 .12-.19.15-.74.17-1.6.32-1.66.33s-.92.26-1.32.35c-.14 0-.22 0-.24-.06a.11.11 0 0 1 .08-.13 2 2 0 0 0 .4-.15.67.67 0 0 0 .19-.76 27 27 0 0 0 -.56-2.81l-.52-2.28c-.45-2-.54-2.37-.66-2.77a.6.6 0 0 0 -.71-.59l-.46.07a.13.13 0 0 1 -.13-.08c0-.08 0-.12.19-.15.61-.14 1.46-.3 1.54-.32l1.31-.33c.15 0 .22 0 .24.06a.13.13 0 0 1 -.08.13 1.52 1.52 0 0 0 -.33.11c-.35.16-.38.36-.31.82s.17.81.62 2.81l.06.27c0 .08 0 .07.09.06l5.57-1.26s.08 0 .06-.09l-.06-.27c-.45-2-.56-2.39-.67-2.8s-.24-.63-.69-.59l-.46.07a.12.12 0 0 1 -.13-.08c0-.08 0-.12.19-.15.59-.13 1.46-.3 1.52-.31l1.31-.33c.15 0 .23 0 .25.05a.13.13 0 0 1 -.1.13 1.58 1.58 0 0 0 -.33.11c-.33.15-.37.35-.29.82s.14.78.6 2.78z" fill="#702721" stroke="#702721" stroke-width=".61"></path><path d="m132.66 182.88c0-.47 0-.56.13-.59a.65.65 0 0 1 .47.34c.43.44 4.4 4.78 5.89 6.36.88.93 1.29 1 1.6.95a1.92 1.92 0 0 0 .54-.12.15.15 0 0 1 .2 0 .3.3 0 0 1 -.25.21c-.19.07-1.14.43-2 .73a.65.65 0 0 1 -.48.08c0-.06 0-.07.05-.12a.25.25 0 0 0 0-.38l-2.27-2.34a.11.11 0 0 0 -.14 0l-3 1.11a.14.14 0 0 0 -.09.15v2.25a2.74 2.74 0 0 0 .12.9.39.39 0 0 0 .56.17h.12c.1 0 .15 0 .17.05s0 .13-.15.17c-.31.11-1 .33-1.17.39s-.76.33-1.28.53c-.16.06-.26.06-.29 0a.12.12 0 0 1 .08-.15l.37-.17a1.52 1.52 0 0 0 .65-1.54zm3.34 4.62c.06 0 0-.05 0-.1l-2.54-2.92q-.22-.24-.22.08l.08 3.84c0 .06 0 .09.08.07z" fill="#702721" stroke="#702721" stroke-width=".61"></path><path d="m143.25 184.72c.56 1.15 1 2.08 1.31 2.55a.6.6 0 0 0 .75.41 5.45 5.45 0 0 0 .59-.22.11.11 0 0 1 .15.05c0 .06 0 .12-.15.19-.69.33-1.5.68-1.56.71s-.82.45-1.2.63c-.13.06-.21.07-.24 0a.11.11 0 0 1 0-.15 1.93 1.93 0 0 0 .35-.24.65.65 0 0 0 0-.79c-.18-.52-.63-1.46-1.18-2.61l-1-2.1c-.9-1.85-1.06-2.18-1.27-2.54a.61.61 0 0 0 -.71-.45 2.41 2.41 0 0 0 -.4.14.12.12 0 0 1 -.15-.05c0-.07 0-.13.15-.19.41-.2 1.19-.54 1.26-.58s.84-.44 1.22-.63c.14-.07.21-.07.24 0a.13.13 0 0 1 -.05.15 1.49 1.49 0 0 0 -.29.18c-.3.23-.29.44-.11.87s.33.72 1.23 2.57z" fill="#702721" stroke="#702721" stroke-width=".61"></path><path d="m162.14 175.12a1.46 1.46 0 0 0 1.38.69 2.88 2.88 0 0 0 .79-.43.09.09 0 0 1 .14 0 .25.25 0 0 1 -.15.27c-.25.18-1.5 1.06-1.93 1.32s-.36.17-.4.12a.11.11 0 0 1 0-.14.5.5 0 0 0 -.23-.41l-4.49-5 1.35 7.39a1 1 0 0 1 0 .85.9.9 0 0 1 -.74-.21c-.68-.31-2.41-1.14-3.11-1.52s-3-1.57-3.54-1.87h-.05l3.12 5.12c.11.17.26.37.38.55a.37.37 0 0 0 .48.11 2.23 2.23 0 0 0 .47-.25.12.12 0 0 1 .14 0c.06.07 0 .16-.13.25-.41.3-1 .65-1.05.72s-.6.5-.9.72c-.11.08-.21.11-.26 0a.13.13 0 0 1 .06-.16 2.67 2.67 0 0 0 .3-.28c.32-.33 0-.73-.2-1.17l-4.32-7.54a.22.22 0 0 1 0-.28.31.31 0 0 1 .35 0l8.21 4.16-1.66-9a.3.3 0 0 1 0-.3c.07-.06.2 0 .38.17z" fill="#702721" stroke="#702721" stroke-width=".61"></path><path d="m161.62 164.57c-.18-.43-.19-.53-.13-.59a.65.65 0 0 1 .57.11c.57.23 6 2.58 8 3.42 1.18.49 1.57.35 1.85.21a1.9 1.9 0 0 0 .44-.33.15.15 0 0 1 .2 0 .29.29 0 0 1 -.15.3c-.14.14-.87.85-1.56 1.49a.65.65 0 0 1 -.41.27s0-.07 0-.13a.25.25 0 0 0 -.16-.34l-3-1.3a.11.11 0 0 0 -.14 0l-2.25 2.21a.14.14 0 0 0 0 .18l.93 2.05a2.73 2.73 0 0 0 .48.77.39.39 0 0 0 .58-.07l.09-.09c.08-.08.13-.06.18 0s0 .13-.07.22-.8.72-.91.83-.56.61-1 1c-.12.12-.21.16-.26.11a.12.12 0 0 1 0-.17 3.79 3.79 0 0 0 .27-.31 1.52 1.52 0 0 0 0-1.67zm4.95 2.86s0-.07 0-.1l-3.57-1.64q-.3-.13-.17.16l1.63 3.48c0 .06.07.07.1 0z" fill="#702721" stroke="#702721" stroke-width=".61"></path><path d="m173.42 166.05c-.19.08-.24.07-.51-.16-.5-.41-.87-.8-1-.95s-.15-.16-.1-.22a.13.13 0 0 1 .2 0 1.77 1.77 0 0 0 2.78-.57 1.78 1.78 0 0 0 -.06-2.7c-.73-.6-1.41-.49-2.87-.12l-.76.18c-1.79.44-2.72.3-3.43-.28-1.2-1-1.14-2.53 0-3.92a6.62 6.62 0 0 1 1-1 1.77 1.77 0 0 0 .33-.31c.07-.08.1-.1.16 0s.35.36 1 .94c.16.13.22.2.16.27s-.12 0-.21 0a2.43 2.43 0 0 0 -.63-.26 2 2 0 0 0 -1.63 1 1.57 1.57 0 0 0 0 2.31c.65.53 1.29.51 2.86 0l.45-.13c1.93-.57 3-.43 3.89.29a2.58 2.58 0 0 1 .93 2.42 4.19 4.19 0 0 1 -1 2 5 5 0 0 1 -1.56 1.21z" fill="#702721" stroke="#702721" stroke-width=".61"></path><path d="m178.95 159.06c-.18.1-.23.09-.53-.11-.54-.36-.95-.71-1.12-.84s-.16-.15-.12-.21a.13.13 0 0 1 .2 0 2 2 0 0 0 .43.23 2 2 0 0 0 2.29-1.07 1.78 1.78 0 0 0 -.32-2.68c-.79-.53-1.45-.35-2.87.16l-.73.26c-1.74.61-2.68.57-3.44.06-1.29-.86-1.39-2.4-.38-3.9a6.6 6.6 0 0 1 .92-1.09 1.78 1.78 0 0 0 .32-.37c.06-.09.09-.11.16-.06a13.88 13.88 0 0 0 1.13.83c.17.11.24.18.19.25s-.11.06-.21 0a2.46 2.46 0 0 0 -.66-.2 2 2 0 0 0 -1.53 1.11 1.57 1.57 0 0 0 .18 2.31c.7.47 1.33.39 2.85-.23l.44-.18c1.87-.75 3-.72 3.9-.09a2.58 2.58 0 0 1 1.17 2.31 4.19 4.19 0 0 1 -.82 2.07 5 5 0 0 1 -1.45 1.44z" fill="#702721" stroke="#702721" stroke-width=".61"></path><path d="m185.75 146.89c.67-1.28.64-1.72.45-2.17a2.14 2.14 0 0 0 -.5-.58.21.21 0 0 1 -.11-.23c0-.07.09-.07.31 0a7.4 7.4 0 0 1 1.22 1c.25.22.26.24.11.52-1.06 2-2.2 4-3.31 6.17-.07.14-.13.21-.21.17a.74.74 0 0 1 -.27-.35c-1.68-3.2-3.34-6.36-5.07-9.39l-1.37 2.55a4.89 4.89 0 0 0 -.71 1.82 1.51 1.51 0 0 0 .56 1.17c.16.12.16.21.12.27s-.09 0-.19 0-1.1-.81-1.43-1.07c-.16-.1-.2-.16-.16-.23a4.68 4.68 0 0 0 .35-.47c.65-1.14.94-1.72 1.14-2.11l1.78-3.39c.09-.18.16-.23.23-.2a.38.38 0 0 1 .17.18c1.77 3.18 3.47 6.32 5.16 9.55z" fill="#702721" stroke="#702721" stroke-width=".61"></path><path d="m179.39 132.68c.16 0 .17.07.15.13a2 2 0 0 0 -.17.44 10 10 0 0 0 -.25 2.44 1 1 0 0 1 0 .25.09.09 0 0 1 -.12 0 .16.16 0 0 1 -.08-.15c-.16-.66-.45-2.33-.47-2.45a1.08 1.08 0 0 1 0-.48.23.23 0 0 1 .19-.09c.16-.02.36-.05.75-.09zm1.2 3.4c-.34-.32-.39-.4-.36-.49a.65.65 0 0 1 .57-.13c.61 0 6.5-.1 8.67-.16 1.28 0 1.58-.32 1.77-.56a1.91 1.91 0 0 0 .27-.48.15.15 0 0 1 .16-.12.3.3 0 0 1 0 .33c-.07.19-.44 1.13-.81 2a.65.65 0 0 1 -.26.42c-.06 0 0-.05-.05-.12a.25.25 0 0 0 -.29-.25h-3.27a.11.11 0 0 0 -.12.09l-1.14 2.94a.14.14 0 0 0 .05.17l1.69 1.49a2.75 2.75 0 0 0 .75.51.39.39 0 0 0 .5-.31v-.12c0-.1.09-.11.15-.09s.07.11 0 .23c-.12.3-.43 1-.49 1.13s-.25.79-.46 1.31c-.06.16-.12.24-.2.21a.12.12 0 0 1 -.06-.16 3.83 3.83 0 0 0 .12-.39 1.52 1.52 0 0 0 -.72-1.51zm5.69.57c0-.06 0-.07-.07-.08h-3.87q-.33 0-.08.22l2.92 2.5h.1z" fill="#702721" stroke="#702721" stroke-width=".61"></path><path d="m192.78 127.71c.36-1.4.23-1.82-.05-2.22a2.14 2.14 0 0 0 -.62-.45.21.21 0 0 1 -.16-.2c0-.08.07-.09.31 0a7.4 7.4 0 0 1 1.41.65c.3.16.31.18.23.48-.57 2.21-1.22 4.44-1.82 6.76 0 .15-.08.24-.17.21a.74.74 0 0 1 -.34-.28c-2.36-2.73-4.7-5.43-7.07-8l-.73 2.8a4.89 4.89 0 0 0 -.28 1.94 1.51 1.51 0 0 0 .81 1c.19.08.2.16.18.24s-.08.06-.19 0-1.26-.54-1.63-.71c-.18-.06-.23-.11-.21-.18a4.78 4.78 0 0 0 .24-.53c.37-1.25.52-1.89.63-2.31l1-3.7c.05-.2.1-.26.18-.24a.38.38 0 0 1 .21.13c2.45 2.69 4.81 5.36 7.2 8.12z" fill="#702721" stroke="#702721" stroke-width=".61"></path><path d="m194.28 122.76c-.12.17-.17.18-.52.12-.65-.1-1.16-.24-1.37-.29s-.21-.06-.2-.14a.13.13 0 0 1 .17-.1 2 2 0 0 0 .48 0 2 2 0 0 0 1.62-1.94 1.78 1.78 0 0 0 -1.42-2.3c-.94-.15-1.46.29-2.54 1.35l-.5.54c-1.32 1.29-2.19 1.64-3.1 1.5-1.54-.24-2.27-1.6-2-3.38a6.61 6.61 0 0 1 .37-1.38 1.78 1.78 0 0 0 .14-.47c0-.11 0-.14.11-.12s.48.14 1.37.28c.2 0 .29.06.28.15s-.08.1-.19.1a2.45 2.45 0 0 0 -.68.1 2 2 0 0 0 -.92 1.65 1.57 1.57 0 0 0 1.14 2c.83.13 1.37-.21 2.48-1.41l.32-.34c1.38-1.47 2.37-1.9 3.49-1.72a2.58 2.58 0 0 1 2 1.61 4.2 4.2 0 0 1 .13 2.22 5 5 0 0 1 -.66 1.97z" fill="#702721" stroke="#702721" stroke-width=".61"></path></g><circle cx="21.37" cy="80.51" fill="#fff" r="4.17"></circle><circle cx="188.08" cy="80.51" fill="#fff" r="4.17"></circle><path d="m25.66 59.47 1-1.64q1-1.66 4.14-2.23h.3c.05 0 .05.1 0 .18l-2.6 3.37a5.61 5.61 0 0 0 -.72 3.4h.08q.66.41 3.84-1.11 4.69-3.91 7.23-2.34a6.29 6.29 0 0 1 2.59 4.49 1 1 0 0 1 -.11.57l-2.81 2.29-.12-.07q.48-3.55-1-4.5-1.37-.85-3.88.1a6.48 6.48 0 0 1 -3.46 1.53h-2.17a1.85 1.85 0 0 0 .24.82l-.21.16h-.14l-2.35-1.46q-.98-.58.15-3.56zm8.15 4.59q.14-.16.19-.06a6.81 6.81 0 0 0 2.25 3.16q1.69 1.05 3.6-.54l1.5-2 .12.07a6.43 6.43 0 0 1 -.81 2.43 6.26 6.26 0 0 1 -3.49 2.69 5.63 5.63 0 0 1 -2.79-.35l-.38-.3a2.3 2.3 0 0 1 -1-3 9.86 9.86 0 0 1 .82-2.1z" fill="#450607" stroke="#450607" stroke-width=".53" transform="translate(0 -1.69)"></path><path d="m43.14 38a.61.61 0 0 1 .43.14 1.68 1.68 0 0 1 .08.69l.14.26 1.75-.85a2.52 2.52 0 0 1 1.15.05l4 4.61a11.09 11.09 0 0 0 2.44.7v.21a5.84 5.84 0 0 0 -1.52.25l1 1.41q.54.5.79.24a1.91 1.91 0 0 1 1.61.36l.29.28q0 2.31-.39 2.74l-.34.27-1.55 1.79-.72.56-2.88 3.33a2.74 2.74 0 0 1 -1.78.88l-1.92-1.66a18.08 18.08 0 0 0 -1.33-1.52l-.29-.28q-1.73.42-2.3-.14l-.32-.32q-.05-2.23.39-2.68l.31-.24 1.51-1.76.72-.56 2.8-3.25.37-.3a29.39 29.39 0 0 0 -2.06-2.21l-.22-.22q-1.12-1.12-1.4-.85l-.15.07a16.85 16.85 0 0 0 -.13 3.42 4.21 4.21 0 0 1 -1.09 2.84 9.29 9.29 0 0 1 -2.8 1.37 3.8 3.8 0 0 1 -2.27-.94l-.32-.25-.14-.12a1 1 0 0 1 -.31-.82l.08-.08q2 .4 2.52-.08l.7-.71q1.23-1.24 2.69-5.86zm2.38 12a11.69 11.69 0 0 0 2.27 1.78.4.4 0 0 1 .39-.06v.07q.08-.08.35.15l2.82-3.4a8 8 0 0 0 -2-3.08l-.14.14q-.6.6-3.69 4.34z" fill="#450607" stroke="#450607" stroke-width=".53" transform="translate(0 -1.69)"></path><path d="m61.32 25q.95-.58 2.63 1.22a1.5 1.5 0 0 0 .66.65v.08.27l.39.73.26.34-.14.56a2.84 2.84 0 0 1 -.8-.48l1.58 3 .17.28a4.08 4.08 0 0 0 2.07 1.78v.13a2.38 2.38 0 0 0 -1.93.24 16.29 16.29 0 0 0 -1.87 1l-1 1.4a5.4 5.4 0 0 1 -.82.78 3.42 3.42 0 0 1 -1.77.36l.12.2.13.13.5.83a.52.52 0 0 0 .06.35l1 1.56a1.12 1.12 0 0 0 .73.58l3.06-1.87q-.17-.28.66-.79l.86-.47-.21-.34v-.06a9.14 9.14 0 0 0 2.34-.74h.06l.6 1q.32.53-.63 1.1l-.3.18a1.17 1.17 0 0 1 -1.47-.18l-.26.12-4.45 2.72a3.39 3.39 0 0 0 -.72 1.13l-.41.36-.27.17a.57.57 0 0 1 -.89-.2l-6.72-11a.57.57 0 0 1 .09-.64 2.22 2.22 0 0 0 -.82-.48.24.24 0 0 1 0-.23 4 4 0 0 0 3.28-.37l.41-.25q.5-.31 2.91-2.19a.89.89 0 0 1 -.71 0 6.69 6.69 0 0 1 1.44-2.85zm1.6 4.49-1.21.85-.59.25-2.54 1.89-.67.3.63 1 .77 1.17a1.82 1.82 0 0 1 .8.18l.53-.21 1.25-1 2.34-1.21.41-.36-1.41-2.58-.23-.44z" fill="#450607" stroke="#450607" stroke-width=".53" transform="translate(0 -1.69)"></path><path d="m74.07 19.91.37-.12a3.77 3.77 0 0 1 2 .75 1.77 1.77 0 0 1 1.27.68 2.47 2.47 0 0 0 .75-1.49 8.27 8.27 0 0 1 1.84-1.73h.13a2.68 2.68 0 0 1 2.33.44 4.74 4.74 0 0 1 1.39 2.31l3.72 9.77q.2.61-1.56 1.8a8.93 8.93 0 0 0 -1.73-1.06l-.39-.4v-.06h.6v-.86a24 24 0 0 1 -2.15-5.22l-.4-1.22q-1-3.2-1.74-3.52a1.44 1.44 0 0 0 -.88-.06h-.09a3.83 3.83 0 0 0 -1.18 1.73v.26l2.65 7.95-.18.41a2.4 2.4 0 0 1 .9 1.37 3 3 0 0 1 -1.84 2.49q-2.19-1.23-2.37-1.79h.91l.44-.62a35.56 35.56 0 0 1 -2.36-6 13.1 13.1 0 0 0 -1.65-3.1l-.52-.06h-.13a3 3 0 0 0 -.82 1.44h-.15l-.23-.12.14-2.49a2.08 2.08 0 0 1 .93-1.48z" fill="#450607" stroke="#450607" stroke-width=".53" transform="translate(0 -1.69)"></path><path d="m108 4.82h.23q.2 0 1 3l.22.94v.1a3.47 3.47 0 0 1 -1.05.35 5.51 5.51 0 0 0 -2.55 2.86l-.2 1.05q2.5 1.08 2.55 2.21a12.4 12.4 0 0 0 -.37 2.55l.32 7.33q.08 1.75-1 1.8a7 7 0 0 1 -2-.67l-4.28.19-.05.31a2.07 2.07 0 0 0 1.18 1.24q1.41.51 5.79 1.67c1.17.56 1.51 1.84 1.6 3.92l-.09 1.93c-.22 1.8-1.74 2.27-2.91 2.85a4.64 4.64 0 0 1 -2.57.94l-7.09.31a8.43 8.43 0 0 1 -.73 1.52v-.06l-.19-.16a29.36 29.36 0 0 0 .19-7.2q-.08-1.8-1-2.26v-.07a1.17 1.17 0 0 1 1.22-.6h.48q1.18-.05 1.62 1.85a22.77 22.77 0 0 1 -.68 4.7l5.64-.24a3.53 3.53 0 0 0 2.3-.91c1-.92 1.06-1 1-2.18s-.07-1.41-2.48-2a43.67 43.67 0 0 1 -4.91-1.71 1.09 1.09 0 0 1 -.32-.67 14.62 14.62 0 0 0 1.07-3l.05-.38-2.15.09a2.44 2.44 0 0 1 -1.44 1.32h-.7q-.93 0-1.39-1.81l-.31-9.44q-.07-1.61.7-1.64h.48a5.39 5.39 0 0 1 2.36.58l6.23-.27q1.34-.06 2.08-6 .46-3 1.38-3.85a1.52 1.52 0 0 1 .77-.49zm-10.57 12.33v1.76.09a1.19 1.19 0 0 0 .22 1l6.77-.29v-2l-.17-.87zm0 4.93.08.23v1.3.64q0 .43.27.41h.55l6.29-.27.06-1.19v-.76l-.08-.73z" fill="#450607" stroke="#450607" stroke-width=".53" transform="translate(0 -1.69)"></path><path d="m133 16.7a14.4 14.4 0 0 1 1.82 1.65l.52.29 7.52 2.68v.14l-.1.29a1.38 1.38 0 0 1 -.63.28l-1.44-.56-2.15-.72a.46.46 0 0 0 -.48.33l-.07.2a.48.48 0 0 0 .4.64l3.27 1.16a.42.42 0 0 1 .32.59q-.16.45-1 .16l-3.35-1.19-.32.16-2.88 8.09a8.86 8.86 0 0 0 0 4.59 5.1 5.1 0 0 1 -1.75-2.71 9.24 9.24 0 0 1 .31-6.27l1.48-4.15a.79.79 0 0 0 -.47-1.17l-4.27-1.52q-.09 0 0-.19a4 4 0 0 1 1.62-1l.1-.29h-.25a1.28 1.28 0 0 1 -.78-.5l.1-.29a5.15 5.15 0 0 1 2.48-.69zm-.11 2.4a4 4 0 0 0 1 1l1 .37.13-.36a.45.45 0 0 0 -.35-.63l-.19-.07a3.37 3.37 0 0 0 -1.62-.31z" fill="#450607" stroke="#450607" stroke-width=".53" transform="translate(0 -1.69)"></path><path d="m153 25.39.1.06q.58 2.59.21 3.22l-.19.33-1.29 2.51-.7.88-2.35 4.71q-1.48 2.51-5.2 2l-1.44.12-.07-.29v-.06a6.91 6.91 0 0 0 4-3.32l.22-.37 2.82-5.73.2-.35.88-1.27-.19-.33a3.26 3.26 0 0 0 -1.39 0l-.27-.16-.11-.53a12.57 12.57 0 0 0 3-1.47 2.08 2.08 0 0 1 1.77.05zm3-6.4a2.63 2.63 0 0 1 1 2.31 1.34 1.34 0 0 1 -.27 1.08 3.65 3.65 0 0 1 -2.14 1.62 1.13 1.13 0 0 1 -.55-.19l-.78-.46a1 1 0 0 1 -.22-1.28v-.06a1.56 1.56 0 0 1 .51-.47l.76-1.61-.88-.52c-.05 0 0-.09 0-.19s.78-.25 1.93-.07z" fill="#450607" stroke="#450607" stroke-width=".53" transform="translate(0 -1.69)"></path><path d="m170.31 39.59a.6.6 0 0 1 -.12.44 1.68 1.68 0 0 1 -.68.12l-.26.15.94 1.7a2.51 2.51 0 0 1 0 1.15l-4.41 4.18a11.08 11.08 0 0 0 -.58 2.47h-.21a5.81 5.81 0 0 0 -.32-1.5l-1.36 1.1q-.47.56-.2.8a1.92 1.92 0 0 1 -.28 1.63l-.27.3q-2.3.15-2.76-.26l-.29-.32-1.86-1.45-.65-.63-3.47-2.71a2.74 2.74 0 0 1 -1-1.73l1.56-2a18.05 18.05 0 0 0 1.45-1.4l.27-.3q-.51-1.7 0-2.3l.3-.33q2.22-.16 2.69.26l.25.29 1.83 1.42.59.69 3.41 2.64.32.35a29.43 29.43 0 0 0 2.23-2.23l.21-.23q1.06-1.18.78-1.44l-.1-.16a16.82 16.82 0 0 0 -3.42 0 4.21 4.21 0 0 1 -2.9-1 9.28 9.28 0 0 1 -1.51-2.73 3.79 3.79 0 0 1 .83-2.31l.24-.33.13-.14a1 1 0 0 1 .81-.36l.08.08q-.3 2.06.21 2.51l.74.67q1.3 1.17 6 2.4zm-11.83 3a11.69 11.69 0 0 0 -1.66 2.36.4.4 0 0 1 .08.39h-.07q.08.08-.14.35l3.54 2.64a8 8 0 0 0 3-2.16l-.23-.17q-.63-.54-4.52-3.44z" fill="#450607" stroke="#450607" stroke-width=".53" transform="translate(0 -1.69)"></path><path d="m179.41 51.47.22.32a3.77 3.77 0 0 1 -.16 2.11 1.77 1.77 0 0 1 -.3 1.41 2.47 2.47 0 0 0 1.64.31 8.26 8.26 0 0 1 2.19 1.3v.08a2.67 2.67 0 0 1 .24 2.36 4.74 4.74 0 0 1 -1.82 2l-8.32 6.32q-.53.36-2.17-1a8.91 8.91 0 0 0 .53-2l.27-.49h.06l.21.69.83-.21a24 24 0 0 1 4.41-3.53l1.06-.72q2.77-1.9 2.89-2.66a1.43 1.43 0 0 0 -.19-.86l-.05-.07a3.83 3.83 0 0 0 -2-.64l-.24.11-6.88 4.7-.44-.06a2.4 2.4 0 0 1 -1.07 1.25 3 3 0 0 1 -2.9-1.06q.56-2.45 1.05-2.78l.23.88.72.25a35.57 35.57 0 0 1 5.1-4 13.1 13.1 0 0 0 2.48-2.43l-.09-.51-.08-.11a3 3 0 0 0 -1.58-.46l-.09-.13.12-.25 2.43-.56a2.08 2.08 0 0 1 1.7.44z" fill="#450607" stroke="#450607" stroke-width=".53" transform="translate(0 -1.69)"></path><path d="m275.42 104.87q1.08.12 1.08.6-7.9 10.89-7.9 18.07 0 10.05 12.44 14l13.16 1.08v.72a35.17 35.17 0 0 1 -13.16 3 33.89 33.89 0 0 1 -21.78-7.78q-6.26-8.87-6.26-12.94v-2.39q0-10.17 10.53-12.44a54.19 54.19 0 0 1 11.89-1.92zm-2.15-47.27h10.17q10.29 0 21.54 11.85l.84 1.32c0 .32-.28.48-.84.48l-22.38-2.16q-8.5 0-17.23 6v.48q0 3.95 15.67 13.52 30.63 9.69 30.63 24.77v.24q0 11.85-12.92 23.09a5.61 5.61 0 0 1 -2.87 1.08l-17.83-6.46v-.72q17.23-7.42 17.23-16.51 0-8.14-11.25-16.39-11.48-4.09-16.51-10.79l-5.86-9.45h-.24q-.72.12-3 3.23h-1.08l-.6-.48v-14q.01-5.99 16.53-9.1z" fill="#f2cf65" transform="translate(0 -1.69)"></path><path d="m376.78 58.44a3 3 0 0 1 1.08 2 8.55 8.55 0 0 1 -2.27 2.75l-.48 1.44v.27l9.69 3.23a13 13 0 0 1 4.07 4.31l-2.51 30.63a55.44 55.44 0 0 0 6.46 11.25v.24l-.72.84h-.24a30.84 30.84 0 0 0 -6.58-4.55l-1.44 8.74q.12 3.71 2 3.71 4.67 3.59 4.67 7.06v2q-8.5 8.38-11.73 8.38l-2.27-.24-12.44.84-4.79-.6-23.21 1.56a14.87 14.87 0 0 1 -9.93-3.23l-1-12.8a87.48 87.48 0 0 0 .72-10.17v-2q-8-4.67-8-8.74v-2.27q8.14-8.14 11.49-8.14l2 .24 12.21-.84 4.79.6 22.65-1.57 2.51.24a142.56 142.56 0 0 0 .84-15.92v-1.55q0-8-2-8l-1-.24q-1.08 0-13.28 11.73-7.3 6.22-14.72 6.22-12-2.63-15.56-5.15-3.23-2.39-4.91-11.49l-.24-2v-1a5 5 0 0 1 1.91-4.07h.6q6.1 8.74 9.69 8.74h5.26q9.21 0 31.95-11.25zm-35.9 51.21q1.08 14.48 1.79 14.48 1.55.48 1.68 1.2l-.24.24v.24q.6 0 .72 1.79l23.21-2a39.18 39.18 0 0 0 4.07-18.19h-1.11q-4.63-.03-30.12 2.24z" fill="#f2cf65" transform="translate(0 -1.69)"></path><path d="m450.85 59.39q5.86 0 8.5 12.21a7.36 7.36 0 0 0 1.2 4.55v.48l-.72 1.2-.24 4.17.24 2.15-2.15 2q-.36 0-2.27-4.19h-.24l-1.17 17.28v1.68a20 20 0 0 0 4.43 13.16v.24l-.48.48h-.24a12.84 12.84 0 0 0 -9.33-4.07 89.75 89.75 0 0 0 -11.13-.72l-8.5 3.35a29.55 29.55 0 0 1 -5.86 1.2q-3.71 0-9-3.11v1.2l.48.72v4.91a2.59 2.59 0 0 0 -.72 1.68v9.21a5.51 5.51 0 0 0 1.67 4.43h18.91q0-1.67 5.15-1.68l5.15.24v-2l.24-.24v-.24q4.19 2 12.92 3.47l.24.24v5.86q0 3.11-5.86 3.11h-2.17q-4.43 0-6.1-4.67l-1.2-.24h-27.53q-1.44 0-6.34 3l-2.87.48h-1.67q-3.47 0-3.47-3.23v-65.14q0-1.55 2.15-2.51 0-1.19-2.39-4.55a1.21 1.21 0 0 1 .72-1q6.8 7.1 15.8 7.1h2.51q3.11 0 19.15-1.79v-.24q-3.35-1-3.35-1.68a35.63 35.63 0 0 1 14.36-8.5h1.2zm-5.14 23.61-7.78.48-3.35-.48-16.63 1.4-3.83-.48v6.08l.24 7.06q.6 0 3.11 2.87l3 .48 8.5-1.2h.24l13.88 1 2.87-.48.72-14.84-.24-2.15z" fill="#f2cf65" transform="translate(0 -1.69)"></path><path d="m475.15 63.58h2q2.27 0 8.74 6.7 2 0 5.27 5.27h.24q1.91 0 6.22-6 9.81-5.26 11.85-5.27h.72q6.1 0 11 5.74 3.23 4.67 3.23 13.28l2.75 52.77q0 3.23-10.77 6.22 0-.72-6.94-7.78l-1.28-2.51.24-.24 3 1.08 1.58-4.04q-2.27-7.54-2.27-28.48v-6.46q0-17-3-19.62a7.78 7.78 0 0 0 -4.31-1.68h-.48q-4.45 1.44-8.76 6.44l-.24 1.32v42l-1.56 1.68q2.27 2.51 2.27 8-5.5 9.1-13.28 9.09-9-9.33-9-12.32l4.55 1.56 3.23-2.27q-2-9-2-32.55-1-11.85-3.23-17.47l-2.52-1.04h-.72q-1.68 0-6.68 5.25h-.84l-.72-1.2 4.79-11.73q4.05-5.74 6.92-5.74z" fill="#f2cf65" transform="translate(0 -1.69)"></path><path d="m614.32 17h1.2q1.08 0 4.43 15.32l1 4.79v.6q0 .36-5.62 1.56-10.17 5-14.12 13.88l-1.32 5.27q12.92 6 12.92 11.73-2.51 9.33-2.51 12.8v37.09q0 8.86-5.74 8.85-2 0-10.29-3.83h-22.67l-.36 1.56q0 2.75 6.34 6.58 7.3 2.87 30.15 9.69 9.09 4.67 9.09 20.46v20.46q0 12.32-9.45 16.27a25.26 25.26 0 0 1 -13.76 4.19h-37.44q-3.59 6.58-4.67 7.54l-.72-1v-.36q2.87-8.74 2.87-36.14 0-9.1-4.67-11.61v-.36q1.08-2.75 6.58-2.75h2.51q6.22 0 8.14 9.69 0 6.34-4.67 23.57h29.8q10.77-.6 12.33-4.07a92.22 92.22 0 0 0 3.11-21.66q0-8.14-18.91-13.28-21.18-7.3-25.49-9.69a5.39 5.39 0 0 1 -1.56-3.47q6.34-12.8 6.34-14.72l.36-1.91h-11.35q-4.79 6.34-7.9 6.34h-3.71q-4.91 0-6.94-9.45v-48.02q0-8.14 4.07-8.14h2.51q5.14 0 12.33 3.47h32.91q7.06 0 12.33-29.92 3.11-14.84 8.14-19.15 2.74-2.18 4.41-2.18zm-59.47 84.84.36 1.2-.36 6.58v3.23q0 2.15 1.32 2.15l2.83.4h33.27l.6-6v-3.83l-.24-3.71h-37.78zm1-24.89-.6 8.85v.6q0 5 1 5h35.78l.72-10.05-.8-4.35h-36.14z" fill="#f2cf65" transform="translate(0 -1.69)"></path><path d="m705.5 55.92h.24q1.19 0 12 4.79l3.11.48h42.12l.48.6v1.56a7.19 7.19 0 0 1 -2.63 2.39l-8.14-.24-12 .24a2.35 2.35 0 0 0 -1.79 2.39v1.08q0 2.4 3.11 2.39h18.31q2.63 0 2.63 2.27t-4.55 2.39h-18.78l-1.32 1.32v43.42q0 9.09 8 21.9v.24q-6.94-1.79-13.52-9.93-9.57-11.25-9.57-30.39v-22.25q0-4.78-4.43-4.79h-23.92c-.32 0-.48-.28-.48-.84q0-1.55 6.34-7.42v-1.52h-.24l-1.32.24q-4.79-.36-4.79-1.08v-1.58q8.27-7.58 11.14-7.66zm3.71 11.61q5.38 3 6.82 3h5.86v-1.92q0-2.39-2.87-2.39h-1.08q-8.25.35-8.73 1.31z" fill="#f2cf65" transform="translate(0 -1.69)"></path><path d="m785.56 54.37h.6q9.57 9.81 9.57 13.52v1.91l.84 14.2-.84 5.62 1.92 26.56q0 14.72-18.43 21.9l-6.22 4.24-1.08-1.08v-.36q9.21-9.57 9.21-24.65v-2.15l-2.51-32.19v-2l.6-7.78-2-.6h-.24q-1.32 0-6.22 3.71h-1.76l-1.92-2v-.3q3-2.51 9.57-14a11.11 11.11 0 0 1 8.91-4.55zm-3.56-35.54q5.5 0 10.65 7.54 1.08 0 1.67 5.38 0 6.82-5.38 12.56a6.2 6.2 0 0 1 -3 .6h-4.79q-4.43-1.44-4.43-5v-.38a7.63 7.63 0 0 1 1.08-3.35l-.84-9h-5.38c-.32 0-.48-.28-.48-.84q0-2 8.62-5.27z" fill="#f2cf65" transform="translate(0 -1.69)"></path><path d="m862.26 58.44a3 3 0 0 1 1.08 2 8.55 8.55 0 0 1 -2.27 2.75l-.48 1.44v.27l9.69 3.23a13 13 0 0 1 4.07 4.31l-2.51 30.63a55.44 55.44 0 0 0 6.46 11.25v.24l-.72.84h-.24a30.84 30.84 0 0 0 -6.58-4.55l-1.44 8.74q.12 3.71 2 3.71 4.67 3.59 4.67 7.06v2q-8.5 8.38-11.73 8.38l-2.27-.24-12.44.84-4.79-.6-23.21 1.56a14.87 14.87 0 0 1 -9.93-3.23l-1-12.8a87.48 87.48 0 0 0 .72-10.17v-2q-8-4.67-8-8.74v-2.27q8.14-8.14 11.49-8.14l2 .24 12.21-.84 4.79.6 22.62-1.56 2.55.23a142.56 142.56 0 0 0 .84-15.92v-1.55q0-8-2-8l-1-.24q-1.08 0-13.28 11.73-7.3 6.22-14.72 6.22-12-2.63-15.56-5.15-3.23-2.39-4.91-11.49l-.24-2v-1a5 5 0 0 1 1.91-4.07h.6q6.1 8.74 9.69 8.74h5.26q9.21 0 31.95-11.25zm-35.9 51.21q1.08 14.48 1.79 14.48 1.55.48 1.68 1.2l-.24.24v.24q.6 0 .72 1.79l23.21-2a39.18 39.18 0 0 0 4.07-18.19h-1.08q-4.66-.03-30.14 2.24z" fill="#f2cf65" transform="translate(0 -1.69)"></path><path d="m892.79 63.58h2q2.27 0 8.74 6.7 2 0 5.27 5.27h.24q1.91 0 6.22-6 9.81-5.26 11.85-5.27h.72q6.1 0 11 5.74 3.23 4.67 3.23 13.28l2.75 52.77q0 3.23-10.77 6.22 0-.72-6.94-7.78l-1.29-2.51.24-.24 3 1.08 1.56-4.07q-2.27-7.54-2.27-28.48v-6.43q0-17-3-19.62a7.78 7.78 0 0 0 -4.34-1.68h-.48q-4.4 1.44-8.71 6.44l-.24 1.32v42l-1.57 1.68q2.27 2.51 2.27 8-5.5 9.1-13.28 9.09-9-9.33-9-12.32l4.55 1.56 3.23-2.27q-2-9-2-32.55-1-11.85-3.23-17.47l-2.54-1.04h-.72q-1.68 0-6.7 5.27h-.84l-.72-1.2 4.79-11.73q4.1-5.76 6.98-5.76z" fill="#f2cf65" transform="translate(0 -1.69)"></path></svg>